if (_typeface_js && _typeface_js.loadFace) _typeface_js.loadFace({"glyphs":{"0":{"ha":852,"x_min":63,"x_max":789,"o":"m 426 935 q 736 866 683 935 q 789 463 789 798 q 739 77 789 144 q 426 -9 674 -9 q 113 77 178 -9 q 63 496 63 144 q 119 868 63 801 q 426 935 174 935 m 426 847 q 197 797 231 847 q 163 463 163 747 q 197 129 163 179 q 426 79 231 79 q 655 129 621 79 q 689 463 689 179 q 655 797 689 747 q 426 847 621 847 z "},"1":{"ha":852,"x_min":142,"x_max":549,"o":"m 549 926 l 549 0 l 445 0 l 445 848 l 208 585 l 142 648 l 399 926 l 549 926 z "},"2":{"ha":852,"x_min":75,"x_max":745,"o":"m 742 88 l 742 0 l 75 0 l 75 174 q 132 366 75 321 q 403 436 189 412 q 609 488 574 455 q 645 656 645 520 q 605 811 645 776 q 432 847 566 847 q 221 818 265 847 q 178 680 178 789 l 179 610 l 77 610 l 77 659 q 148 880 77 825 q 429 935 218 935 q 680 876 616 935 q 745 643 745 816 q 685 421 745 477 q 424 345 625 365 q 214 296 248 328 q 180 119 180 265 l 180 88 l 742 88 z "},"3":{"ha":852,"x_min":71,"x_max":762,"o":"m 339 429 l 339 518 l 374 517 q 603 541 562 517 q 645 671 645 565 q 609 820 645 793 q 408 847 572 847 q 221 821 257 847 q 186 682 186 794 l 186 642 l 87 642 l 87 678 q 149 886 87 837 q 410 935 211 935 q 679 889 614 935 q 745 701 745 844 q 713 534 745 579 q 589 478 682 490 l 589 473 q 728 416 694 459 q 762 258 762 374 q 695 43 762 96 q 426 -9 629 -9 q 139 39 207 -9 q 71 246 71 88 l 71 301 l 173 301 l 173 248 q 213 104 173 130 q 440 79 253 79 q 624 111 585 79 q 663 265 663 143 q 626 398 663 368 q 467 429 589 429 l 378 429 l 339 429 z "},"4":{"ha":852,"x_min":37,"x_max":798,"o":"m 659 926 l 659 302 l 798 302 l 798 214 l 659 214 l 659 0 l 555 0 l 555 214 l 37 214 l 37 336 l 498 926 l 659 926 m 555 302 l 555 859 l 553 859 l 123 302 l 555 302 z "},"5":{"ha":852,"x_min":90,"x_max":768,"o":"m 730 926 l 730 838 l 211 838 l 206 557 l 208 557 q 452 633 262 633 q 702 570 635 633 q 768 333 768 507 q 705 55 768 120 q 435 -9 642 -9 q 160 39 229 -9 q 90 229 90 87 l 90 264 l 189 264 q 228 109 189 139 q 427 79 267 79 q 631 117 594 79 q 669 329 669 156 q 627 507 669 469 q 433 545 585 545 q 201 456 222 545 l 107 456 l 107 926 l 730 926 z "},"6":{"ha":851,"x_min":67,"x_max":758,"o":"m 734 692 l 632 692 q 635 725 635 717 q 597 823 635 799 q 445 847 560 847 q 223 817 270 847 q 177 675 177 787 l 177 487 l 179 487 q 446 570 238 570 q 695 513 632 570 q 758 288 758 456 q 692 48 758 105 q 417 -9 627 -9 q 136 53 203 -9 q 69 316 69 116 l 67 484 l 70 633 q 134 876 70 817 q 394 935 197 935 q 664 891 593 935 q 734 724 734 847 l 734 692 m 412 481 q 213 451 260 481 q 167 320 167 420 q 208 118 167 157 q 416 79 248 79 q 618 111 578 79 q 659 274 659 142 q 619 448 659 415 q 412 481 580 481 z "},"7":{"ha":852,"x_min":66,"x_max":741,"o":"m 741 926 l 741 793 l 293 0 l 169 0 l 654 838 l 66 838 l 66 926 l 741 926 z "},"8":{"ha":852,"x_min":71,"x_max":762,"o":"m 604 481 l 604 479 q 731 418 701 459 q 762 265 762 377 q 698 43 762 96 q 429 -9 634 -9 q 137 39 203 -9 q 71 253 71 87 q 101 418 71 374 q 231 480 132 461 l 231 482 q 111 543 140 502 q 83 696 83 584 q 145 889 83 844 q 407 935 208 935 q 689 891 627 935 q 751 689 751 846 q 722 542 751 583 q 604 481 692 500 m 408 847 q 216 822 250 847 q 182 683 182 798 q 224 546 182 571 q 456 522 267 522 q 617 553 582 522 q 652 696 652 584 q 613 823 652 800 q 408 847 575 847 m 410 433 q 210 405 249 433 q 170 260 170 376 q 199 115 170 149 q 321 81 228 81 l 452 79 l 539 84 q 638 130 614 94 q 662 274 662 167 q 618 406 662 378 q 410 433 574 433 z "},"9":{"ha":852,"x_min":68,"x_max":763,"o":"m 71 236 l 169 236 l 168 209 q 209 101 168 123 q 403 79 250 79 q 616 113 578 79 q 655 302 655 147 l 655 441 l 653 441 q 375 359 599 359 q 138 415 199 359 q 77 633 77 471 q 141 877 77 819 q 412 935 205 935 q 692 875 623 935 q 760 627 760 814 l 763 378 l 761 283 q 694 48 761 105 q 418 -9 627 -9 q 140 33 212 -9 q 68 197 68 75 q 71 236 68 208 m 402 847 q 214 814 251 847 q 176 648 176 781 q 213 482 176 517 q 388 447 250 447 q 611 475 568 447 q 654 619 654 503 q 614 811 654 774 q 402 847 574 847 z "}," ":{"ha":347,"x_min":0,"x_max":0,"o":""}," ":{"ha":347,"x_min":0,"x_max":0,"o":""},"A":{"ha":845,"x_min":7,"x_max":838,"o":"m 657 196 l 189 196 l 117 0 l 7 0 l 346 926 l 492 926 l 838 0 l 729 0 l 657 196 m 627 275 l 421 840 l 218 275 l 627 275 z "},"B":{"ha":857,"x_min":88,"x_max":802,"o":"m 88 0 l 88 926 l 498 926 q 721 879 668 926 q 773 681 773 832 q 654 486 773 527 l 654 484 q 802 267 802 449 q 744 60 802 119 q 542 0 686 0 l 88 0 m 193 519 l 467 519 q 636 550 598 519 q 673 689 673 581 q 641 810 673 783 q 496 838 608 838 l 193 838 l 193 519 m 193 88 l 414 88 l 509 89 q 665 120 628 89 q 702 250 702 151 q 665 402 702 374 q 462 431 627 431 l 193 431 l 193 88 z "},"C":{"ha":829,"x_min":52,"x_max":799,"o":"m 695 309 l 799 309 l 799 274 q 734 38 799 85 q 410 -9 670 -9 q 115 74 178 -9 q 52 465 52 157 q 66 767 52 705 q 147 878 80 829 q 487 935 226 935 q 725 880 664 935 q 787 668 787 825 l 787 643 l 684 643 l 683 671 q 647 815 683 783 q 483 847 610 847 q 210 810 259 847 q 160 603 160 772 q 193 146 160 213 q 420 79 227 79 q 651 108 605 79 q 696 254 696 137 l 695 309 z "},"D":{"ha":907,"x_min":88,"x_max":857,"o":"m 88 0 l 88 926 l 517 926 q 786 838 715 926 q 857 503 857 751 q 794 101 857 202 q 543 0 731 0 l 88 0 m 193 88 l 494 88 q 709 155 661 88 q 757 451 757 221 q 715 770 757 703 q 515 838 673 838 l 193 838 l 193 88 z "},"E":{"ha":692,"x_min":51,"x_max":646,"o":"m 155 838 l 155 522 l 625 522 l 625 434 l 155 434 l 155 88 l 646 88 l 646 0 l 51 0 l 51 926 l 646 926 l 646 838 l 155 838 z "},"F":{"ha":679,"x_min":88,"x_max":656,"o":"m 193 838 l 193 514 l 644 514 l 644 426 l 193 426 l 193 0 l 88 0 l 88 926 l 656 926 l 656 838 l 193 838 z "},"G":{"ha":860,"x_min":51,"x_max":818,"o":"m 418 460 l 815 460 q 818 359 818 425 q 756 50 818 109 q 436 -9 695 -9 q 121 61 191 -9 q 52 376 52 131 l 51 512 l 52 594 q 129 867 52 800 q 442 935 207 935 q 747 891 678 935 q 815 692 815 846 l 815 657 l 713 657 l 713 680 q 666 820 713 793 q 424 847 620 847 q 197 804 243 847 q 152 589 152 761 l 151 466 l 151 334 q 202 119 151 159 q 471 79 252 79 q 679 117 639 79 q 718 315 718 155 q 713 372 718 328 l 418 372 l 418 460 z "},"H":{"ha":926,"x_min":88,"x_max":838,"o":"m 838 926 l 838 0 l 734 0 l 734 429 l 193 429 l 193 0 l 88 0 l 88 926 l 193 926 l 193 517 l 734 517 l 734 926 l 838 926 z "},"I":{"ha":283,"x_min":88,"x_max":193,"o":"m 193 926 l 193 0 l 88 0 l 88 926 l 193 926 z "},"J":{"ha":697,"x_min":36,"x_max":609,"o":"m 609 926 l 609 273 q 549 50 609 109 q 326 -9 490 -9 q 98 41 159 -9 q 36 227 36 92 q 38 337 36 290 l 140 337 l 140 320 l 140 249 q 171 107 140 136 q 321 79 201 79 q 472 116 440 79 q 505 290 505 153 l 505 926 l 609 926 z "},"K":{"ha":838,"x_min":88,"x_max":850,"o":"m 193 926 l 193 522 l 284 522 l 664 926 l 799 926 l 376 479 l 850 0 l 707 0 l 284 433 l 193 433 l 193 0 l 88 0 l 88 926 l 193 926 z "},"L":{"ha":673,"x_min":88,"x_max":669,"o":"m 193 926 l 193 97 l 669 97 l 669 0 l 88 0 l 88 926 l 193 926 z "},"M":{"ha":1192,"x_min":88,"x_max":1104,"o":"m 1104 926 l 1104 0 l 1000 0 l 1000 741 l 1000 796 l 1000 824 l 1001 852 l 998 852 l 990 830 q 982 809 984 814 l 964 766 l 649 0 l 545 0 l 229 757 l 210 800 l 202 821 q 194 842 199 829 l 191 842 l 192 817 l 193 791 l 193 741 l 193 0 l 88 0 l 88 926 l 269 926 l 516 327 l 555 230 l 575 182 l 594 134 l 597 134 l 616 182 q 635 230 630 216 l 675 326 l 920 926 l 1104 926 z "},"N":{"ha":967,"x_min":88,"x_max":879,"o":"m 879 926 l 879 0 l 707 0 l 319 630 l 256 734 l 225 785 l 194 837 l 191 837 l 192 802 l 193 767 l 193 698 l 193 0 l 88 0 l 88 926 l 259 926 l 597 374 l 686 229 l 730 157 l 773 84 l 776 84 l 775 119 l 774 154 l 774 223 l 774 926 l 879 926 z "},"O":{"ha":852,"x_min":32,"x_max":821,"o":"m 427 935 q 755 859 689 935 q 821 475 821 782 q 758 68 821 145 q 427 -9 694 -9 q 96 67 160 -9 q 32 463 32 144 l 32 528 l 33 616 q 116 868 33 800 q 427 935 199 935 m 426 847 q 169 798 206 847 q 132 463 132 749 q 169 127 132 176 q 426 79 206 79 q 684 127 646 79 q 721 463 721 176 l 721 524 l 720 611 q 669 806 720 764 q 426 847 617 847 z "},"P":{"ha":819,"x_min":88,"x_max":783,"o":"m 88 0 l 88 926 l 477 926 l 512 926 q 726 865 669 926 q 783 640 783 805 q 723 423 783 481 q 500 366 664 366 l 460 365 l 193 365 l 193 0 l 88 0 m 193 453 l 440 453 q 639 485 595 453 q 683 631 683 517 q 653 801 683 766 q 513 837 624 837 l 473 838 l 193 838 l 193 453 z "},"Q":{"ha":910,"x_min":33,"x_max":897,"o":"m 897 113 l 854 42 l 771 96 q 427 -9 696 -9 q 93 68 153 -9 q 33 500 33 146 q 101 860 33 784 q 427 935 170 935 q 755 859 690 935 q 821 475 821 782 q 804 174 821 245 l 897 113 m 411 332 l 459 403 l 712 235 q 722 410 722 285 q 687 796 722 745 q 427 847 653 847 q 170 798 207 847 q 132 463 132 749 q 170 127 132 176 q 425 79 207 79 q 688 150 642 79 l 411 332 z "},"R":{"ha":865,"x_min":88,"x_max":800,"o":"m 88 0 l 88 926 l 529 926 q 739 867 678 926 q 800 662 800 808 q 767 483 800 534 q 640 418 734 433 l 640 416 q 787 237 787 405 l 787 0 l 683 0 l 683 213 q 543 375 683 375 l 508 375 l 193 375 l 193 0 l 88 0 m 193 463 l 494 463 q 657 499 614 463 q 701 636 701 536 q 668 800 701 762 q 530 838 636 838 l 193 838 l 193 463 z "},"S":{"ha":777,"x_min":41,"x_max":740,"o":"m 723 675 l 619 675 q 582 817 619 787 q 406 847 545 847 q 195 818 242 847 q 147 690 147 789 q 184 553 147 578 q 406 520 222 529 q 681 465 623 511 q 740 262 740 420 q 672 41 740 91 q 374 -9 605 -9 q 108 41 174 -9 q 42 245 42 92 l 41 286 l 145 286 l 145 263 q 183 109 145 139 q 378 79 221 79 q 599 109 557 79 q 640 270 640 139 q 612 383 640 355 q 494 416 584 411 l 386 422 l 283 427 q 47 671 47 444 q 116 882 47 829 q 389 935 184 935 q 660 886 597 935 q 723 675 723 837 z "},"T":{"ha":715,"x_min":5,"x_max":710,"o":"m 411 829 l 411 0 l 307 0 l 307 829 l 5 829 l 5 926 l 710 926 l 710 829 l 411 829 z "},"U":{"ha":909,"x_min":89,"x_max":822,"o":"m 718 926 l 822 926 l 822 277 q 751 46 822 101 q 454 -9 680 -9 q 165 44 241 -9 q 89 246 89 97 l 89 277 l 89 926 l 193 926 l 193 277 q 236 112 193 146 q 446 79 279 79 q 673 112 628 79 q 718 277 718 144 l 718 926 z "},"V":{"ha":794,"x_min":-7,"x_max":801,"o":"m 689 926 l 801 926 l 473 0 l 324 0 l -7 926 l 104 926 l 351 227 l 376 155 q 398 84 389 114 l 401 84 q 446 225 421 153 l 689 926 z "},"W":{"ha":1387,"x_min":2,"x_max":1384,"o":"m 1384 926 l 1093 0 l 934 0 l 739 667 l 715 750 q 703 791 713 757 l 691 833 l 689 833 l 677 791 l 665 749 l 640 665 l 442 0 l 286 0 l 2 926 l 109 926 l 309 260 l 336 170 q 349 125 339 159 l 362 80 l 364 80 l 377 125 l 390 170 l 416 260 l 613 926 l 768 926 l 963 259 l 989 170 l 1002 125 l 1015 80 l 1017 80 l 1030 125 l 1044 171 l 1072 262 l 1275 926 l 1384 926 z "},"X":{"ha":807,"x_min":-7,"x_max":814,"o":"m 791 926 l 496 479 l 814 0 l 690 0 l 476 324 l 442 375 q 427 400 439 379 l 410 426 l 408 426 l 391 399 q 374 374 378 380 l 339 322 l 121 0 l -7 0 l 324 479 l 20 926 l 146 926 l 351 617 l 380 574 q 394 552 385 566 l 408 530 l 410 530 l 424 551 q 437 573 435 570 l 465 616 l 668 926 l 791 926 z "},"Y":{"ha":781,"x_min":-7,"x_max":789,"o":"m 789 926 l 439 387 l 439 0 l 334 0 l 334 387 l -7 926 l 115 926 l 313 613 l 351 553 q 370 523 359 542 l 389 492 l 391 492 q 410 523 404 513 l 428 553 l 467 613 l 665 926 l 789 926 z "},"Z":{"ha":787,"x_min":33,"x_max":755,"o":"m 743 926 l 743 838 l 160 90 l 160 88 l 755 88 l 755 0 l 33 0 l 33 90 l 614 836 l 614 838 l 50 838 l 50 926 l 743 926 z "},"Æ":{"ha":1290,"x_min":-6,"x_max":1244,"o":"m 760 838 l 760 520 l 1222 520 l 1222 432 l 760 432 l 760 88 l 1244 88 l 1244 0 l 655 0 l 655 195 l 223 195 l 117 0 l -6 0 l 509 926 l 1244 926 l 1244 838 l 760 838 m 655 283 l 655 838 l 571 838 l 272 283 l 655 283 z "},"Œ":{"ha":1370,"x_min":52,"x_max":1324,"o":"m 836 829 l 836 522 l 1303 522 l 1303 434 l 836 434 l 836 92 l 1324 92 l 1324 3 l 735 3 l 738 92 l 735 92 q 458 -9 673 -9 q 126 58 201 -9 q 52 355 52 125 q 79 782 52 711 q 428 935 137 935 q 735 829 675 935 l 738 829 l 735 918 l 1324 918 l 1324 829 l 836 829 m 394 847 q 185 790 218 847 q 151 438 151 734 l 151 342 q 158 223 151 272 q 221 106 170 133 q 433 79 273 79 q 677 119 627 79 q 728 311 728 159 l 729 457 l 732 600 l 727 695 q 660 821 716 795 q 394 847 604 847 z "},"Ø":{"ha":874,"x_min":14,"x_max":860,"o":"m 14 5 l 14 108 l 65 157 q 42 475 42 236 q 109 861 42 787 q 454 935 175 935 q 772 842 706 935 l 860 927 l 860 824 l 806 772 q 831 496 831 692 q 772 67 831 144 q 439 -9 713 -9 q 98 87 174 -9 l 14 5 m 174 159 q 249 91 202 103 q 480 79 295 79 q 685 125 638 79 q 731 330 731 172 l 732 552 l 726 650 q 720 688 725 663 l 174 159 m 699 772 q 625 835 672 823 q 410 847 578 847 q 184 800 226 847 q 142 543 142 752 q 152 242 142 321 l 699 772 z "},"Ç":{"ha":829,"x_min":52,"x_max":799,"o":"m 695 309 l 799 309 l 799 274 q 734 38 799 85 q 410 -9 670 -9 q 115 74 178 -9 q 52 465 52 157 q 66 767 52 705 q 147 878 80 829 q 487 935 226 935 q 725 880 664 935 q 787 668 787 825 l 787 643 l 684 643 l 683 671 q 647 815 683 783 q 483 847 610 847 q 210 810 259 847 q 160 603 160 772 q 193 146 160 213 q 420 79 227 79 q 651 108 605 79 q 696 254 696 137 l 695 309 m 435 -68 l 511 -111 l 402 -262 l 340 -229 l 435 -68 z "},"a":{"ha":708,"x_min":60,"x_max":616,"o":"m 182 467 l 88 467 q 139 619 88 580 q 340 658 191 658 q 559 610 502 658 q 616 428 616 562 l 616 0 l 521 0 l 528 70 l 526 71 q 306 -9 472 -9 q 60 188 60 -9 q 115 350 60 305 q 314 395 170 395 q 519 328 485 395 l 521 328 l 521 407 q 490 551 521 518 q 357 584 460 584 q 182 486 182 584 q 182 467 182 481 m 335 321 q 193 298 226 321 q 160 199 160 275 q 193 95 160 120 q 325 69 225 69 q 526 191 526 69 q 487 294 526 268 q 335 321 448 321 z "},"b":{"ha":710,"x_min":83,"x_max":644,"o":"m 83 0 l 83 926 l 178 926 l 178 566 l 180 564 q 393 658 213 658 q 590 584 536 658 q 644 316 644 510 q 587 61 644 132 q 380 -9 530 -9 q 176 81 227 -9 l 174 80 l 178 0 l 83 0 m 369 579 q 219 531 257 579 q 181 341 181 484 q 215 117 181 165 q 373 69 250 69 q 511 118 477 69 q 545 320 545 168 q 511 530 545 481 q 369 579 478 579 z "},"c":{"ha":673,"x_min":64,"x_max":625,"o":"m 529 234 l 624 234 l 625 199 q 352 -9 625 -9 q 121 56 177 -9 q 64 328 64 122 q 122 589 64 520 q 340 658 179 658 q 555 611 498 658 q 613 437 613 565 l 518 437 l 518 454 q 481 554 518 529 q 332 579 444 579 q 195 532 225 579 q 164 319 164 484 q 199 113 164 157 q 362 69 234 69 q 500 98 471 69 q 529 234 529 127 z "},"d":{"ha":709,"x_min":66,"x_max":625,"o":"m 625 926 l 625 0 l 530 0 l 535 84 l 532 85 q 324 -9 488 -9 q 120 63 175 -9 q 66 334 66 136 q 121 587 66 516 q 317 658 176 658 q 528 566 494 658 l 530 568 l 530 926 l 625 926 m 340 579 q 200 531 235 579 q 165 334 165 482 q 200 120 165 172 q 342 69 234 69 q 494 120 459 69 q 530 343 530 172 q 491 531 530 482 q 340 579 452 579 z "},"e":{"ha":698,"x_min":64,"x_max":632,"o":"m 534 196 l 631 196 l 632 172 q 571 31 632 71 q 355 -9 509 -9 q 120 56 176 -9 q 64 331 64 121 q 121 591 64 525 q 341 658 177 658 q 576 600 520 658 q 631 357 631 543 l 631 307 l 165 307 q 198 111 165 153 q 351 69 231 69 q 500 89 466 69 q 534 176 534 109 l 534 196 m 534 380 l 534 411 q 499 548 534 516 q 350 579 465 579 q 200 542 235 579 q 166 380 166 505 l 534 380 z "},"f":{"ha":368,"x_min":9,"x_max":373,"o":"m 109 0 l 109 570 l 9 570 l 9 648 l 109 648 l 109 745 q 304 935 109 935 q 373 930 334 935 l 373 852 q 306 857 327 857 q 203 753 203 857 l 203 648 l 373 648 l 373 570 l 203 570 l 203 0 l 109 0 z "},"g":{"ha":709,"x_min":65,"x_max":626,"o":"m 626 648 l 626 -42 q 565 -236 626 -183 q 341 -289 504 -289 q 143 -244 196 -289 q 90 -77 90 -199 l 182 -77 q 213 -185 182 -160 q 348 -210 243 -210 q 494 -178 456 -210 q 531 -50 531 -145 l 531 80 l 529 81 q 317 -9 492 -9 q 119 61 174 -9 q 65 320 65 132 q 120 586 65 515 q 326 658 176 658 q 534 560 485 658 l 536 561 l 531 648 l 626 648 m 343 579 q 198 532 231 579 q 165 326 165 485 q 198 117 165 165 q 343 69 231 69 q 492 122 456 69 q 528 340 528 174 q 492 533 528 487 q 343 579 456 579 z "},"h":{"ha":714,"x_min":83,"x_max":625,"o":"m 178 926 l 178 568 l 180 567 q 381 658 216 658 q 625 441 625 658 l 625 414 l 625 0 l 530 0 l 530 414 l 530 433 q 380 579 530 579 q 219 536 260 579 q 178 365 178 493 l 178 0 l 83 0 l 83 926 l 178 926 z "},"i":{"ha":261,"x_min":83,"x_max":178,"o":"m 178 926 l 178 819 l 83 819 l 83 926 l 178 926 m 178 648 l 178 0 l 83 0 l 83 648 l 178 648 z "},"j":{"ha":258,"x_min":-7,"x_max":172,"o":"m 172 926 l 172 819 l 77 819 l 77 926 l 172 926 m 172 648 l 172 -60 l 172 -87 q 39 -248 172 -248 q -7 -243 19 -248 l -7 -176 q 4 -175 1 -175 l 16 -174 l 56 -161 q 77 -60 77 -143 l 77 648 l 172 648 z "},"k":{"ha":597,"x_min":83,"x_max":621,"o":"m 178 926 l 178 388 l 222 388 l 451 648 l 570 648 l 293 351 l 621 0 l 492 0 l 217 314 l 178 314 l 178 0 l 83 0 l 83 926 l 178 926 z "},"l":{"ha":262,"x_min":83,"x_max":178,"o":"m 178 926 l 178 0 l 83 0 l 83 926 l 178 926 z "},"m":{"ha":1147,"x_min":83,"x_max":1045,"o":"m 83 648 l 178 648 l 176 551 l 178 549 q 390 658 233 658 q 590 549 555 658 l 593 549 q 816 658 654 658 q 1045 424 1045 658 l 1045 0 l 950 0 l 950 433 q 920 549 950 518 q 804 579 889 579 q 652 537 692 579 q 612 375 612 494 l 612 0 l 517 0 l 517 424 l 515 454 q 372 579 515 579 q 178 368 178 579 l 178 0 l 83 0 l 83 648 z "},"n":{"ha":716,"x_min":83,"x_max":628,"o":"m 83 648 l 175 648 l 172 560 l 175 558 q 391 658 218 658 q 579 609 530 658 q 628 422 628 560 l 628 0 l 533 0 l 533 414 l 533 438 q 501 550 533 522 q 378 579 469 579 q 178 390 178 579 l 178 0 l 83 0 l 83 648 z "},"o":{"ha":703,"x_min":65,"x_max":638,"o":"m 351 658 q 585 595 531 658 q 638 324 638 533 q 585 53 638 115 q 351 -9 531 -9 q 119 53 172 -9 q 65 324 65 115 q 119 595 65 533 q 351 658 172 658 m 351 579 q 195 538 225 579 q 165 324 165 497 q 195 110 165 151 q 351 69 225 69 q 508 110 478 69 q 538 324 538 151 q 508 538 538 497 q 351 579 478 579 z "},"p":{"ha":709,"x_min":83,"x_max":642,"o":"m 83 648 l 178 648 l 174 566 l 176 564 q 389 658 226 658 q 588 585 534 658 q 642 315 642 511 q 587 61 642 132 q 392 -9 532 -9 q 180 77 232 -9 l 178 77 l 178 -278 l 83 -278 l 83 648 m 363 579 q 214 530 249 579 q 180 319 180 481 q 217 119 180 169 q 367 69 254 69 q 508 117 474 69 q 543 316 543 165 q 509 530 543 481 q 363 579 476 579 z "},"q":{"ha":708,"x_min":65,"x_max":625,"o":"m 625 648 l 625 -278 l 530 -278 l 530 79 l 528 81 q 315 -9 486 -9 q 120 64 175 -9 q 65 325 65 137 q 121 585 65 513 q 321 658 176 658 q 533 566 479 658 l 535 568 l 530 648 l 625 648 m 336 579 q 198 528 231 579 q 165 315 165 477 q 199 116 165 163 q 341 69 233 69 q 490 118 452 69 q 528 309 528 166 q 493 530 528 481 q 336 579 458 579 z "},"r":{"ha":553,"x_min":93,"x_max":545,"o":"m 93 648 l 188 648 l 178 574 l 180 572 q 366 663 237 663 q 545 479 545 663 l 545 434 l 451 434 l 453 450 q 455 485 455 476 q 347 585 455 585 q 188 389 188 585 l 188 0 l 93 0 l 93 648 z "},"s":{"ha":658,"x_min":54,"x_max":605,"o":"m 586 479 l 491 479 q 464 563 491 547 q 322 579 436 579 q 188 562 216 579 q 159 479 159 545 q 255 374 159 379 l 332 370 l 429 366 q 605 181 605 357 q 547 31 605 72 q 333 -9 488 -9 q 114 29 174 -9 q 54 171 54 68 l 54 206 l 153 206 l 153 176 q 186 91 153 112 q 314 69 218 69 q 468 92 431 69 q 505 185 505 114 q 412 288 505 288 q 128 324 196 288 q 60 476 60 361 q 114 622 60 585 q 328 658 168 658 q 586 503 586 658 l 586 479 z "},"t":{"ha":452,"x_min":-7,"x_max":452,"o":"m 427 648 l 427 570 l 178 570 l 178 173 q 270 69 178 69 q 361 162 361 69 l 362 194 l 363 230 l 452 230 l 452 182 q 271 -9 452 -9 q 83 150 83 -9 l 83 173 l 83 570 l -7 570 l -7 648 l 83 648 l 83 804 l 178 804 l 178 648 l 427 648 z "},"u":{"ha":705,"x_min":83,"x_max":612,"o":"m 612 648 l 612 0 l 517 0 l 524 85 l 522 87 q 311 -9 473 -9 q 83 217 83 -9 l 83 648 l 178 648 l 178 217 q 208 99 178 129 q 322 69 237 69 q 476 114 434 69 q 517 277 517 158 l 517 648 l 612 648 z "},"v":{"ha":559,"x_min":-5,"x_max":564,"o":"m 564 648 l 347 0 l 210 0 l -5 648 l 93 648 l 208 296 l 243 185 l 260 130 l 278 74 l 281 74 l 297 129 l 313 184 l 348 294 l 458 648 l 564 648 z "},"w":{"ha":931,"x_min":5,"x_max":927,"o":"m 927 648 l 745 0 l 604 0 l 517 360 l 491 470 l 479 525 l 466 580 l 464 580 l 451 525 l 438 470 l 412 360 l 324 0 l 180 0 l 5 648 l 104 648 l 196 290 l 224 177 l 238 121 l 252 64 l 254 64 l 267 121 l 281 177 l 308 289 l 397 648 l 535 648 l 623 288 l 650 176 l 663 121 l 676 64 l 678 64 l 692 121 l 706 177 l 734 290 l 825 648 l 927 648 z "},"x":{"ha":561,"x_min":-5,"x_max":566,"o":"m 541 648 l 330 343 l 566 0 l 452 0 l 281 262 l 109 0 l -5 0 l 231 339 l 20 648 l 134 648 l 281 412 l 427 648 l 541 648 z "},"y":{"ha":540,"x_min":-5,"x_max":544,"o":"m 544 648 l 360 -37 q 274 -237 321 -182 q 140 -291 227 -291 q 94 -286 122 -291 l 94 -208 q 127 -212 114 -212 q 241 -88 204 -216 l 260 -24 q 266 0 260 -21 l 230 0 l -5 648 l 96 648 l 196 359 l 246 216 l 271 143 l 296 71 l 298 71 l 316 143 l 333 216 l 370 359 l 443 648 l 544 648 z "},"z":{"ha":560,"x_min":30,"x_max":530,"o":"m 62 648 l 530 648 l 530 556 l 143 79 l 530 79 l 530 0 l 30 0 l 30 90 l 418 570 l 62 570 l 62 648 z "},"æ":{"ha":1151,"x_min":60,"x_max":1084,"o":"m 1084 314 l 623 314 l 623 287 q 656 106 623 143 q 819 69 689 69 q 955 91 922 69 q 987 179 987 112 l 988 196 l 1084 196 l 1084 169 q 808 -9 1084 -9 q 569 100 610 -9 l 567 100 q 332 -9 525 -9 q 60 189 60 -9 q 118 343 60 300 q 323 387 175 387 q 524 321 481 387 l 526 321 l 526 431 q 492 554 526 524 q 351 584 458 584 q 184 488 184 584 l 184 473 l 84 473 q 139 623 93 587 q 327 658 186 658 q 577 574 543 658 l 579 574 q 805 658 626 658 q 1029 599 974 658 q 1084 361 1084 541 l 1084 314 m 988 393 l 987 425 q 951 548 987 516 q 810 579 915 579 q 662 545 701 579 q 623 416 623 511 l 622 393 l 988 393 m 321 308 q 160 194 160 308 q 197 95 160 121 q 341 69 235 69 q 527 191 527 69 q 485 284 527 260 q 321 308 442 308 z "},"œ":{"ha":1162,"x_min":64,"x_max":1097,"o":"m 1097 314 l 638 314 l 637 277 q 672 108 637 146 q 825 69 707 69 q 967 93 935 69 q 1000 196 1000 117 l 1097 196 q 1039 30 1097 69 q 798 -9 982 -9 q 587 82 633 -9 l 585 82 q 347 -9 545 -9 q 117 55 170 -9 q 64 334 64 119 q 118 594 64 530 q 335 658 171 658 q 585 564 556 658 l 587 564 q 817 658 628 658 q 1041 599 985 658 q 1097 366 1097 541 l 1097 314 m 1000 393 q 967 543 1000 507 q 829 579 934 579 q 672 544 709 579 q 635 393 635 508 l 1000 393 m 351 579 q 194 538 224 579 q 164 324 164 497 q 194 110 164 151 q 351 69 224 69 q 508 110 478 69 q 538 324 538 151 q 508 538 538 496 q 351 579 478 579 z "},"ø":{"ha":703,"x_min":40,"x_max":663,"o":"m 40 -22 l 40 65 l 87 110 q 64 323 64 176 q 118 596 64 534 q 355 658 172 658 q 587 590 533 658 l 663 663 l 663 576 l 616 532 q 638 335 638 467 q 586 57 638 123 q 367 -9 534 -9 q 119 54 178 -9 l 40 -22 m 189 121 q 336 69 218 69 q 507 110 476 69 q 538 334 538 151 q 534 452 538 392 l 189 121 m 517 524 q 366 579 488 579 q 195 539 227 579 q 164 323 164 500 q 170 189 164 247 l 517 524 z "},"ß":{"ha":728,"x_min":88,"x_max":649,"o":"m 88 0 l 88 715 l 88 743 q 341 935 88 935 q 597 753 597 935 q 477 599 597 628 l 477 597 q 614 518 579 576 q 649 311 649 460 q 601 61 649 132 q 431 -9 553 -9 q 248 184 248 -9 l 248 198 l 341 198 l 342 178 q 431 69 342 69 q 527 115 505 69 q 549 311 549 161 q 512 507 549 458 q 363 556 474 556 l 310 556 l 283 556 l 283 638 l 305 638 l 339 639 q 498 737 498 639 q 468 834 498 812 q 335 857 437 857 q 183 724 183 857 l 183 0 l 88 0 z "},"ı":{"ha":261,"x_min":83,"x_max":178,"o":"m 178 648 l 178 0 l 83 0 l 83 648 l 178 648 z "},"":{"ha":634,"x_min":9,"x_max":551,"o":"m 109 0 l 109 570 l 9 570 l 9 648 l 109 648 l 109 745 q 304 935 109 935 q 373 930 334 935 l 373 852 q 306 857 327 857 q 203 753 203 857 l 203 648 l 373 648 l 373 570 l 203 570 l 203 0 l 109 0 m 551 926 l 551 819 l 456 819 l 456 926 l 551 926 m 551 648 l 551 0 l 456 0 l 456 648 l 551 648 z "},"":{"ha":634,"x_min":9,"x_max":551,"o":"m 109 0 l 109 570 l 9 570 l 9 648 l 109 648 l 109 745 q 304 935 109 935 q 373 930 334 935 l 373 852 q 306 857 327 857 q 203 753 203 857 l 203 648 l 373 648 l 373 570 l 203 570 l 203 0 l 109 0 m 551 926 l 551 0 l 456 0 l 456 926 l 551 926 z "},"ç":{"ha":673,"x_min":64,"x_max":625,"o":"m 529 234 l 624 234 l 625 199 q 352 -9 625 -9 q 121 56 177 -9 q 64 328 64 122 q 122 589 64 520 q 340 658 179 658 q 555 611 498 658 q 613 437 613 565 l 518 437 l 518 454 q 481 554 518 529 q 332 579 444 579 q 195 532 225 579 q 164 319 164 484 q 199 113 164 157 q 362 69 234 69 q 500 98 471 69 q 529 234 529 127 m 343 -68 l 410 -104 l 315 -237 l 261 -208 l 343 -68 z "},"£":{"ha":852,"x_min":64,"x_max":806,"o":"m 546 450 l 546 362 l 283 362 l 283 319 l 284 245 l 274 162 q 206 81 262 121 l 206 79 l 806 86 l 806 0 l 86 0 l 86 79 q 179 286 179 100 l 179 362 l 64 362 l 64 450 l 179 450 l 179 591 l 178 673 l 182 750 q 476 935 208 935 q 723 884 656 935 q 790 696 790 833 l 789 649 l 688 649 l 688 672 q 654 817 688 787 q 494 847 621 847 q 320 817 355 847 q 284 670 284 787 l 283 636 l 283 450 l 546 450 z "},"$":{"ha":852,"x_min":37,"x_max":814,"o":"m 467 836 l 467 515 q 744 463 673 515 q 814 261 814 412 q 747 56 814 111 q 496 1 680 1 l 467 0 l 467 -104 l 388 -104 l 388 0 l 321 0 q 235 3 269 0 q 37 288 37 18 l 140 288 l 140 271 q 175 116 140 147 q 355 85 211 85 l 388 84 l 388 427 q 113 475 178 427 q 47 677 47 523 q 116 876 47 825 q 388 926 184 926 l 388 1012 l 467 1012 l 467 926 l 505 925 q 734 878 675 925 q 793 696 793 831 l 793 667 l 692 667 l 692 690 q 659 810 692 785 q 505 836 626 836 l 467 836 m 388 838 l 356 838 q 186 809 225 838 q 146 689 146 781 q 187 548 146 580 q 363 515 227 515 l 388 515 l 388 838 m 467 84 q 504 79 492 80 q 715 261 715 62 q 672 394 715 363 q 492 425 630 425 l 467 425 l 467 84 z "},"¢":{"ha":851,"x_min":124,"x_max":690,"o":"m 449 682 l 449 173 q 594 301 594 173 l 595 337 l 690 337 l 689 312 q 449 94 689 94 l 449 -5 l 370 -5 l 370 94 q 176 169 228 94 q 124 446 124 243 q 370 758 124 758 l 370 848 l 449 848 l 449 758 q 677 570 677 758 l 676 540 l 581 540 q 557 652 581 626 q 449 682 533 677 m 370 684 q 252 633 279 677 q 224 453 224 589 q 250 229 224 279 q 370 174 277 179 l 370 684 z "},"ƒ":{"ha":852,"x_min":99,"x_max":753,"o":"m 510 616 l 402 5 q 336 -149 382 -110 q 178 -187 291 -187 q 99 -182 142 -187 l 113 -102 q 184 -109 159 -109 q 302 -3 283 -109 l 412 616 l 284 616 l 298 694 l 425 694 l 450 837 q 517 991 471 952 q 681 1029 563 1029 q 753 1027 703 1029 l 739 947 q 668 951 696 951 q 550 846 569 951 l 524 694 l 695 694 l 681 616 l 510 616 z "},"¥":{"ha":852,"x_min":47,"x_max":805,"o":"m 624 633 l 750 633 l 750 545 l 571 545 l 486 409 l 750 409 l 750 321 l 473 321 l 473 0 l 369 0 l 369 321 l 102 321 l 102 409 l 356 409 l 274 545 l 102 545 l 102 633 l 222 633 l 47 926 l 168 926 l 423 493 l 426 493 l 681 926 l 805 926 l 624 633 z "},".":{"ha":271,"x_min":83,"x_max":188,"o":"m 188 125 l 188 0 l 83 0 l 83 125 l 188 125 z "},":":{"ha":271,"x_min":83,"x_max":188,"o":"m 188 125 l 188 0 l 83 0 l 83 125 l 188 125 m 188 648 l 188 524 l 83 524 l 83 648 l 188 648 z "},"∙":{"ha":271,"x_min":83,"x_max":188,"o":"m 188 384 l 188 259 l 83 259 l 83 384 l 188 384 z "},"…":{"ha":829,"x_min":83,"x_max":746,"o":"m 188 125 l 188 0 l 83 0 l 83 125 l 188 125 m 465 125 l 465 0 l 360 0 l 360 125 l 465 125 m 746 125 l 746 0 l 642 0 l 642 125 l 746 125 z "},",":{"ha":275,"x_min":74,"x_max":192,"o":"m 192 125 l 192 -9 q 100 -136 192 -136 q 74 -135 91 -136 l 74 -83 q 132 -24 132 -80 l 132 0 l 87 0 l 87 125 l 192 125 z "},";":{"ha":248,"x_min":46,"x_max":164,"o":"m 164 125 l 164 -9 q 72 -136 164 -136 q 46 -135 63 -136 l 46 -83 q 104 -24 104 -80 l 104 0 l 60 0 l 60 125 l 164 125 m 157 648 l 157 524 l 53 524 l 53 648 l 157 648 z "},"‘":{"ha":248,"x_min":58,"x_max":182,"o":"m 58 684 l 58 819 q 151 945 58 945 q 182 943 161 945 l 182 891 q 118 832 118 891 l 119 808 l 163 808 l 163 684 l 58 684 z "},"”":{"ha":443,"x_min":66,"x_max":385,"o":"m 184 926 l 184 791 q 92 664 184 664 q 66 665 84 664 l 66 718 q 125 777 125 721 l 124 801 l 80 801 l 80 926 l 184 926 m 385 926 l 385 791 q 292 664 385 664 q 261 665 281 664 l 261 718 q 325 777 325 718 l 324 801 l 280 801 l 280 926 l 385 926 z "},"“":{"ha":443,"x_min":58,"x_max":376,"o":"m 258 684 l 258 819 q 351 945 258 945 q 376 943 358 945 l 376 891 q 318 832 318 888 l 319 808 l 363 808 l 363 684 l 258 684 m 58 684 l 58 819 q 151 945 58 945 q 182 943 161 945 l 182 891 q 118 832 118 891 l 119 808 l 163 808 l 163 684 l 58 684 z "},"„":{"ha":443,"x_min":66,"x_max":385,"o":"m 184 125 l 184 -9 q 92 -136 184 -136 q 66 -135 83 -136 l 66 -83 q 125 -24 125 -80 l 124 0 l 80 0 l 80 125 l 184 125 m 385 125 l 385 -9 q 292 -136 385 -136 q 261 -135 281 -136 l 261 -83 q 325 -24 325 -83 l 324 0 l 280 0 l 280 125 l 385 125 z "},"!":{"ha":333,"x_min":109,"x_max":222,"o":"m 218 125 l 218 0 l 114 0 l 114 125 l 218 125 m 222 926 l 209 256 l 120 256 l 109 926 l 222 926 z "},"¡":{"ha":333,"x_min":110,"x_max":224,"o":"m 110 524 l 110 648 l 214 648 l 214 524 l 110 524 m 110 -278 l 123 393 l 212 393 l 224 -278 l 110 -278 z "},"?":{"ha":722,"x_min":74,"x_max":652,"o":"m 367 125 l 367 0 l 262 0 l 262 125 l 367 125 m 370 267 l 268 267 l 269 288 q 295 417 269 380 q 410 488 321 454 l 467 509 q 552 673 552 542 q 520 818 552 788 q 365 847 489 847 q 204 816 237 847 q 172 663 172 785 l 172 636 l 74 636 l 75 667 q 133 884 75 832 q 380 935 192 935 q 595 883 539 935 q 652 683 652 831 q 521 425 652 471 l 464 404 q 371 290 371 371 l 370 267 z "},"¿":{"ha":722,"x_min":69,"x_max":647,"o":"m 351 524 l 351 648 l 455 648 l 455 524 l 351 524 m 351 381 l 453 381 l 452 361 q 427 231 452 268 q 311 161 401 195 l 254 139 q 169 -25 169 106 q 200 -170 169 -140 q 356 -199 232 -199 q 516 -168 484 -199 q 549 -14 549 -136 l 549 12 l 647 12 l 647 -18 q 588 -236 647 -184 q 340 -288 530 -288 q 125 -235 182 -288 q 69 -35 69 -183 q 201 224 69 178 l 257 244 q 351 358 351 277 l 351 381 z "},"»":{"ha":621,"x_min":69,"x_max":551,"o":"m 384 710 l 551 356 l 364 0 l 297 45 l 458 356 l 313 667 l 384 710 m 156 710 l 323 356 l 136 0 l 69 45 l 231 356 l 85 667 l 156 710 z "},"«":{"ha":621,"x_min":69,"x_max":551,"o":"m 236 710 l 307 667 l 161 356 l 323 45 l 256 0 l 69 356 l 236 710 m 464 710 l 535 667 l 389 356 l 551 45 l 484 0 l 297 356 l 464 710 z "},"›":{"ha":392,"x_min":69,"x_max":323,"o":"m 156 710 l 323 356 l 136 0 l 69 45 l 231 356 l 85 667 l 156 710 z "},"‹":{"ha":392,"x_min":69,"x_max":323,"o":"m 236 710 l 307 667 l 161 356 l 323 45 l 256 0 l 69 356 l 236 710 z "},"/":{"ha":897,"x_min":-92,"x_max":800,"o":"m 800 926 l -14 -278 l -92 -278 l 722 926 l 800 926 z "},"-":{"ha":288,"x_min":0,"x_max":288,"o":"m 2 381 l 288 381 l 288 293 l 0 293 l 2 381 z "},"–":{"ha":852,"x_min":154,"x_max":699,"o":"m 154 381 l 699 381 l 699 293 l 154 293 l 154 381 z "},"—":{"ha":961,"x_min":0,"x_max":961,"o":"m 6 381 l 961 381 l 961 293 l 0 293 l 6 381 z "},"(":{"ha":385,"x_min":70,"x_max":315,"o":"m 315 -194 l 315 -282 l 290 -283 q 101 -198 132 -283 q 70 324 70 -113 q 101 846 70 762 q 290 931 132 931 l 315 930 l 315 842 q 197 793 216 842 q 178 490 178 743 l 178 324 l 178 158 q 198 -144 178 -95 q 315 -194 217 -194 z "},")":{"ha":385,"x_min":69,"x_max":315,"o":"m 69 842 l 69 930 l 95 931 q 284 846 253 931 q 315 324 315 762 q 284 -198 315 -113 q 95 -283 253 -283 l 69 -282 l 69 -194 q 187 -144 168 -194 q 206 158 206 -95 l 206 324 l 207 490 q 188 793 207 743 q 69 842 168 842 z "},"[":{"ha":385,"x_min":77,"x_max":313,"o":"m 77 926 l 313 926 l 313 847 l 181 847 l 181 -199 l 313 -199 l 313 -278 l 77 -278 l 77 926 z "},"]":{"ha":385,"x_min":71,"x_max":308,"o":"m 308 -278 l 71 -278 l 71 -199 l 203 -199 l 203 847 l 71 847 l 71 926 l 308 926 l 308 -278 z "},"&":{"ha":972,"x_min":79,"x_max":970,"o":"m 715 409 l 818 409 l 819 385 l 819 338 q 808 206 819 264 l 970 73 l 913 0 l 777 113 q 466 -9 719 -9 q 151 45 222 -9 q 79 286 79 99 q 112 457 79 408 q 241 526 145 506 q 269 532 250 528 q 184 694 184 602 q 242 870 184 823 q 460 918 300 918 q 673 871 616 918 q 730 699 730 825 l 728 642 l 626 642 l 626 676 q 598 804 626 779 q 456 829 570 829 q 318 807 352 829 q 284 716 284 785 q 343 593 284 639 l 366 574 l 715 283 l 715 302 l 715 340 l 715 388 l 715 409 m 334 475 q 204 421 229 452 q 179 283 179 391 q 220 110 179 142 q 446 79 261 79 q 695 178 668 79 l 334 475 z "},"§":{"ha":852,"x_min":104,"x_max":748,"o":"m 726 690 l 635 690 l 635 728 q 596 825 635 804 q 422 847 557 847 q 264 826 297 847 q 231 724 231 804 q 298 603 231 624 l 358 585 l 566 524 q 715 458 684 489 q 746 342 746 427 q 656 159 746 197 q 748 -24 748 115 q 687 -220 748 -174 q 424 -267 625 -267 q 168 -219 226 -267 q 109 -9 109 -172 l 203 -9 q 236 -151 203 -123 q 408 -178 270 -178 q 617 -154 576 -178 q 658 -31 658 -130 q 636 58 658 35 q 528 104 614 81 l 243 179 q 131 240 158 201 q 104 379 104 279 q 210 542 104 517 q 140 705 140 587 q 192 891 140 846 q 410 935 244 935 q 672 893 618 935 q 726 690 726 852 m 298 262 l 507 203 q 576 192 548 192 q 656 334 656 192 q 545 434 656 401 l 345 493 q 276 507 298 507 q 195 376 195 507 q 298 262 195 291 z "},"†":{"ha":852,"x_min":160,"x_max":691,"o":"m 479 926 l 479 671 l 691 671 l 691 593 l 479 593 l 479 -278 l 374 -278 l 374 593 l 160 593 l 160 671 l 374 671 l 374 926 l 479 926 z "},"‡":{"ha":852,"x_min":160,"x_max":691,"o":"m 479 926 l 479 671 l 691 671 l 691 593 l 479 593 l 479 56 l 691 56 l 691 -23 l 479 -23 l 479 -278 l 374 -278 l 374 -23 l 160 -23 l 160 56 l 374 56 l 374 593 l 160 593 l 160 671 l 374 671 l 374 926 l 479 926 z "},"*":{"ha":852,"x_min":178,"x_max":674,"o":"m 674 728 l 484 657 l 597 496 l 543 455 l 427 623 l 303 455 l 249 496 l 368 657 l 178 728 l 202 796 l 392 728 l 392 926 l 461 926 l 461 728 l 650 796 l 674 728 z "},"'":{"ha":219,"x_min":63,"x_max":157,"o":"m 143 555 l 76 555 l 63 926 l 157 926 l 143 555 z "},"\"":{"ha":433,"x_min":63,"x_max":370,"o":"m 143 555 l 76 555 l 63 926 l 157 926 l 143 555 m 357 555 l 290 555 l 277 926 l 370 926 l 357 555 z "},"@":{"ha":875,"x_min":56,"x_max":819,"o":"m 568 657 l 637 657 l 637 338 l 638 309 q 694 235 638 235 q 762 473 762 235 q 716 716 762 674 q 456 759 671 759 q 164 709 216 759 q 113 424 113 659 q 170 119 113 174 q 482 63 227 63 q 686 119 656 63 l 732 85 q 471 14 691 14 q 129 86 203 14 q 56 422 56 159 q 125 750 56 681 q 456 819 195 819 q 752 762 686 819 q 819 505 819 704 q 793 255 819 323 q 696 186 766 186 q 582 261 597 186 l 579 261 q 414 182 547 182 q 275 234 313 182 q 237 424 237 286 q 275 608 237 558 q 416 657 313 657 q 566 593 536 657 l 568 593 l 568 657 m 436 608 q 330 574 353 608 q 306 422 306 541 q 330 268 306 305 q 429 231 353 231 q 544 270 521 231 q 567 461 567 308 q 436 608 567 608 z "},"#":{"ha":852,"x_min":64,"x_max":789,"o":"m 747 356 l 736 294 l 576 294 l 530 0 l 456 0 l 503 294 l 296 294 l 250 0 l 177 0 l 224 294 l 64 294 l 74 356 l 234 356 l 267 573 l 107 573 l 118 635 l 278 635 l 323 926 l 397 926 l 351 635 l 556 635 l 602 926 l 676 926 l 630 635 l 789 635 l 778 573 l 619 573 l 587 356 l 747 356 m 546 573 l 340 573 l 307 356 l 513 356 l 546 573 z "},"°":{"ha":508,"x_min":63,"x_max":445,"o":"m 254 937 q 389 882 333 937 q 445 749 445 827 q 389 617 445 672 q 254 562 333 562 q 119 617 175 562 q 63 749 63 672 q 119 882 63 827 q 254 937 175 937 m 254 880 q 121 749 121 880 q 254 619 121 619 q 387 749 387 619 q 254 880 387 880 z "},"+":{"ha":852,"x_min":105,"x_max":747,"o":"m 378 142 l 378 418 l 105 418 l 105 507 l 378 507 l 378 784 l 473 784 l 473 507 l 747 507 l 747 418 l 473 418 l 473 142 l 378 142 z "},"÷":{"ha":852,"x_min":105,"x_max":747,"o":"m 426 752 q 489 690 489 752 q 426 627 489 627 q 363 690 363 627 q 426 752 363 752 m 426 300 q 489 237 489 300 q 426 174 489 174 q 363 237 363 174 q 426 300 363 300 m 105 507 l 747 507 l 747 418 l 105 418 l 105 507 z "},"=":{"ha":852,"x_min":105,"x_max":747,"o":"m 105 623 l 747 623 l 747 534 l 105 534 l 105 623 m 105 391 l 747 391 l 747 303 l 105 303 l 105 391 z "},"™":{"ha":1105,"x_min":-2,"x_max":1059,"o":"m 242 863 l 242 398 l 173 398 l 173 863 l -2 863 l -2 926 l 416 926 l 416 863 l 242 863 m 1059 926 l 1059 398 l 990 398 l 990 817 l 990 827 l 990 848 l 990 858 q 987 850 988 852 l 983 840 l 979 830 l 794 398 l 727 398 l 543 825 l 538 833 l 534 842 q 530 852 533 845 l 530 840 l 530 829 l 530 817 l 530 398 l 461 398 l 461 926 l 574 926 l 718 587 l 741 533 l 752 506 l 760 488 q 768 506 766 501 l 779 533 l 802 587 l 945 926 l 1059 926 z "},"¶":{"ha":854,"x_min":65,"x_max":741,"o":"m 741 -278 l 646 -278 l 646 838 l 537 838 l 537 -278 l 442 -278 l 442 363 l 388 363 l 356 363 q 126 421 188 363 q 65 637 65 479 q 123 864 65 803 q 336 926 180 926 l 371 926 l 741 926 l 741 -278 z "},"¤":{"ha":926,"x_min":77,"x_max":849,"o":"m 81 170 l 210 300 q 139 497 139 393 q 210 694 139 600 l 77 825 l 132 880 l 262 749 q 465 821 359 821 q 662 749 568 821 l 793 879 l 847 825 l 717 696 q 788 496 788 600 q 718 300 788 395 l 849 170 l 795 115 l 665 246 q 463 175 572 175 q 264 246 364 175 l 134 115 l 81 170 m 464 733 q 298 664 366 733 q 229 497 229 595 q 298 332 229 401 q 464 263 367 263 q 629 332 560 263 q 698 497 698 401 q 629 664 698 595 q 464 733 561 733 z "},"‚":{"ha":275,"x_min":74,"x_max":192,"o":"m 192 125 l 192 -9 q 100 -136 192 -136 q 74 -135 91 -136 l 74 -83 q 132 -24 132 -80 l 132 0 l 87 0 l 87 125 l 192 125 z "},"’":{"ha":275,"x_min":83,"x_max":201,"o":"m 201 926 l 201 791 q 109 664 201 664 q 83 665 101 664 l 83 718 q 142 777 142 721 l 141 801 l 97 801 l 97 926 l 201 926 z "},"{":{"ha":531,"x_min":116,"x_max":416,"o":"m 203 325 q 290 163 290 283 l 290 -68 q 406 -201 290 -201 l 416 -201 l 416 -278 l 356 -278 q 195 -70 195 -278 l 195 159 q 116 286 195 262 l 116 363 q 195 490 195 386 l 195 719 q 356 926 195 926 l 416 926 l 416 850 q 290 717 290 850 l 290 486 q 203 325 290 366 z "},"}":{"ha":531,"x_min":116,"x_max":416,"o":"m 331 323 q 244 484 244 364 l 244 715 q 125 849 244 849 l 116 849 l 116 926 l 177 926 q 339 718 339 926 l 339 488 q 416 361 339 385 l 416 285 q 339 158 339 260 l 339 -71 q 177 -278 339 -278 l 116 -278 l 116 -203 q 244 -69 244 -203 l 244 162 q 331 323 244 282 z "},"ª":{"ha":568,"x_min":79,"x_max":469,"o":"m 182 815 l 116 815 q 147 908 116 884 q 272 931 178 931 q 445 798 445 931 l 445 555 l 375 555 l 379 586 q 258 550 336 550 q 100 664 100 550 q 256 784 100 784 q 376 756 340 784 l 376 787 q 358 865 376 848 q 279 882 341 882 q 182 831 182 882 l 182 815 m 269 735 q 169 669 169 735 q 267 599 169 599 q 378 665 378 599 q 269 735 378 735 m 81 491 l 469 491 l 469 435 l 79 435 l 81 491 z "},"º":{"ha":568,"x_min":90,"x_max":479,"o":"m 284 940 q 431 903 397 940 q 465 745 465 866 q 431 587 465 624 q 284 550 397 550 q 137 587 172 550 q 103 745 103 624 q 137 903 103 866 q 284 940 172 940 m 284 880 q 198 858 214 880 q 182 745 182 837 q 198 631 182 652 q 284 610 214 610 q 370 632 354 610 q 387 745 387 653 q 370 858 387 837 q 284 880 354 880 m 91 491 l 479 491 l 479 435 l 90 435 l 91 491 z "},"±":{"ha":852,"x_min":100,"x_max":751,"o":"m 100 608 l 374 608 l 374 848 l 479 848 l 479 608 l 751 608 l 751 511 l 479 511 l 479 273 l 374 273 l 374 511 l 100 511 l 100 608 m 100 181 l 751 181 l 751 84 l 100 84 l 100 181 z "},"∕":{"ha":185,"x_min":-256,"x_max":442,"o":"m 442 926 l -186 0 l -256 0 l 369 926 l 442 926 z "},"%":{"ha":1091,"x_min":23,"x_max":1065,"o":"m 226 929 q 396 893 365 929 q 427 697 427 857 q 396 498 427 538 q 237 459 365 459 q 59 499 94 459 q 23 700 23 539 q 59 888 23 847 q 226 929 96 929 m 224 880 q 102 854 124 880 q 81 706 81 827 q 103 533 81 558 q 262 508 126 508 q 370 616 370 508 l 370 696 l 370 771 q 346 863 370 845 q 224 880 323 880 m 892 926 l 263 0 l 200 0 l 825 926 l 892 926 m 864 467 q 1034 430 1003 467 q 1065 235 1065 394 q 1034 36 1065 75 q 876 -3 1003 -3 q 697 37 732 -3 q 661 237 661 77 q 697 426 661 385 q 864 467 734 467 m 863 418 q 741 391 762 418 q 719 243 719 365 q 742 71 719 96 q 900 45 764 45 q 1008 153 1008 45 l 1008 233 l 1008 309 q 984 400 1008 382 q 863 418 960 418 z "},"‰":{"ha":1585,"x_min":23,"x_max":1559,"o":"m 226 929 q 396 893 365 929 q 427 697 427 857 q 396 498 427 538 q 237 459 365 459 q 59 499 94 459 q 23 700 23 539 q 59 888 23 847 q 226 929 96 929 m 224 880 q 102 854 124 880 q 81 706 81 827 q 103 533 81 558 q 262 508 126 508 q 370 616 370 508 l 370 696 l 370 771 q 346 863 370 845 q 224 880 323 880 m 892 926 l 263 0 l 200 0 l 825 926 l 892 926 m 864 467 q 1034 430 1003 467 q 1065 235 1065 394 q 1034 36 1065 75 q 876 -3 1003 -3 q 697 37 732 -3 q 661 237 661 77 q 697 426 661 385 q 864 467 734 467 m 863 418 q 741 391 762 418 q 719 243 719 365 q 742 71 719 96 q 900 45 764 45 q 1008 153 1008 45 l 1008 233 l 1008 309 q 984 400 1008 382 q 863 418 960 418 m 1358 467 q 1528 430 1496 467 q 1559 235 1559 394 q 1528 36 1559 75 q 1369 -3 1497 -3 q 1190 37 1225 -3 q 1154 237 1154 77 q 1191 426 1154 385 q 1358 467 1227 467 m 1356 418 q 1234 391 1256 418 q 1212 243 1212 365 q 1235 71 1212 96 q 1393 45 1258 45 q 1501 153 1501 45 l 1501 233 l 1501 309 q 1478 400 1501 382 q 1356 418 1454 418 z "},"\\":{"ha":897,"x_min":-92,"x_max":800,"o":"m -92 926 l -14 926 l 800 -278 l 722 -278 l -92 926 z "},"¨":{"ha":694,"x_min":170,"x_max":525,"o":"m 274 852 l 274 764 l 170 764 l 170 852 l 274 852 m 525 852 l 525 764 l 420 764 l 420 852 l 525 852 z "},"˙":{"ha":690,"x_min":293,"x_max":397,"o":"m 397 852 l 397 764 l 293 764 l 293 852 l 397 852 z "},"˚":{"ha":694,"x_min":241,"x_max":454,"o":"m 347 926 q 454 819 454 926 q 347 713 454 713 q 241 819 241 713 q 347 926 241 926 m 347 877 q 287 819 287 877 q 347 762 287 762 q 408 819 408 762 q 347 877 408 877 z "},"´":{"ha":694,"x_min":268,"x_max":500,"o":"m 452 916 l 500 850 l 300 727 l 268 777 l 452 916 z "},"`":{"ha":694,"x_min":194,"x_max":427,"o":"m 243 916 l 427 777 l 393 727 l 194 850 l 243 916 z "},"ˆ":{"ha":694,"x_min":169,"x_max":525,"o":"m 347 918 l 525 776 l 487 728 l 347 831 l 208 728 l 169 776 l 347 918 z "},"ˇ":{"ha":694,"x_min":169,"x_max":525,"o":"m 347 728 l 169 869 l 208 918 l 347 814 l 487 918 l 525 869 l 347 728 z "},"˘":{"ha":694,"x_min":168,"x_max":528,"o":"m 168 901 l 233 901 q 347 805 254 805 q 461 901 441 805 l 528 901 q 347 731 500 731 q 168 901 195 731 z "},"˜":{"ha":694,"x_min":159,"x_max":534,"o":"m 480 865 l 534 831 q 427 746 486 746 q 341 770 395 746 q 267 793 288 793 q 214 749 239 793 l 159 783 q 270 867 209 867 q 354 844 298 867 q 429 820 413 820 q 480 865 455 820 z "},"˝":{"ha":694,"x_min":199,"x_max":589,"o":"m 355 915 l 407 858 l 234 725 l 199 768 l 355 915 m 537 915 l 589 858 l 416 725 l 380 768 l 537 915 z "},"¸":{"ha":694,"x_min":273,"x_max":421,"o":"m 355 -68 l 421 -104 l 327 -237 l 273 -208 l 355 -68 z "},"˛":{"ha":694,"x_min":361,"x_max":555,"o":"m 455 0 l 526 0 q 419 -115 419 -61 q 504 -178 419 -178 q 555 -166 530 -178 l 555 -227 q 492 -239 521 -239 q 361 -131 361 -239 q 455 0 361 -54 z "},"ˉ":{"ha":694,"x_min":177,"x_max":517,"o":"m 177 845 l 517 845 l 517 766 l 177 766 l 177 845 z "},"©":{"ha":1036,"x_min":46,"x_max":989,"o":"m 669 386 l 739 386 l 739 361 q 700 225 739 253 q 510 198 662 198 q 334 245 372 198 q 296 468 296 293 q 335 696 296 656 q 553 736 374 736 q 732 583 732 736 l 732 564 l 663 564 l 663 584 q 643 660 663 644 q 549 676 623 676 q 393 656 420 676 q 366 545 366 637 q 384 294 366 330 q 513 258 402 258 q 645 273 619 258 q 670 351 670 288 l 669 386 m 519 935 q 851 797 713 935 q 989 463 989 659 q 851 129 989 268 q 519 -9 713 -9 q 184 129 323 -9 q 46 463 46 267 q 184 797 46 659 q 519 935 323 935 m 518 886 q 225 763 347 886 q 104 463 104 639 q 225 163 104 288 q 518 39 347 39 q 810 163 689 39 q 931 463 931 288 q 810 763 931 639 q 518 886 690 886 z "},"®":{"ha":1036,"x_min":46,"x_max":989,"o":"m 307 203 l 307 732 l 567 732 q 728 577 728 732 q 656 440 728 465 q 721 338 721 418 l 721 203 l 652 203 l 652 325 q 574 410 652 410 l 555 410 l 376 410 l 376 203 l 307 203 m 376 472 l 547 472 q 659 563 659 472 q 642 650 659 630 q 568 669 625 669 l 376 669 l 376 472 m 519 935 q 851 797 713 935 q 989 463 989 659 q 851 129 989 268 q 519 -9 713 -9 q 184 129 323 -9 q 46 463 46 267 q 184 797 46 659 q 519 935 323 935 m 518 886 q 225 763 347 886 q 104 463 104 639 q 225 163 104 288 q 518 39 347 39 q 810 163 689 39 q 931 463 931 288 q 810 763 931 639 q 518 886 690 886 z "},"•":{"ha":385,"x_min":0,"x_max":385,"o":"m 194 663 q 329 607 273 663 q 385 471 385 550 q 329 335 385 391 q 194 278 273 278 q 57 335 114 278 q 0 471 0 391 q 57 607 0 551 q 194 663 113 663 z "},"◊":{"ha":721,"x_min":0,"x_max":721,"o":"m 361 962 l 721 463 l 361 -36 l 0 463 l 361 962 m 361 778 l 132 463 l 361 149 l 589 463 l 361 778 z "},"∆":{"ha":847,"x_min":0,"x_max":847,"o":"m 0 0 l 372 926 l 473 926 l 847 0 l 0 0 m 136 88 l 709 88 l 422 810 l 136 88 z "},"≠":{"ha":602,"x_min":0,"x_max":602,"o":"m 332 617 l 408 774 l 475 748 l 412 617 l 602 617 l 602 532 l 373 532 l 311 401 l 602 401 l 602 317 l 271 317 l 194 156 l 128 182 l 192 317 l 0 317 l 0 401 l 231 401 l 294 532 l 0 532 l 0 617 l 332 617 z "},"√":{"ha":926,"x_min":0,"x_max":926,"o":"m 926 1151 l 926 1063 l 652 1063 l 347 0 l 231 0 l 114 418 l 0 418 l 0 507 l 191 507 l 245 323 q 265 235 251 303 l 281 154 l 286 132 l 293 132 q 299 161 298 155 l 321 252 l 356 399 l 418 613 l 570 1151 l 926 1151 z "},"∫":{"ha":419,"x_min":0,"x_max":419,"o":"m 0 -332 l 22 -248 q 83 -258 56 -258 q 148 -229 134 -258 q 162 -96 162 -200 l 162 773 q 195 989 162 936 q 328 1042 227 1042 q 419 1026 366 1042 l 397 942 q 337 954 363 954 q 258 817 258 954 l 257 749 l 257 -79 q 222 -294 257 -242 q 77 -346 187 -346 q 0 -332 36 -346 z "},"≈":{"ha":667,"x_min":0,"x_max":667,"o":"m 57 483 l 0 519 q 189 677 74 677 q 345 626 241 677 q 482 579 441 579 q 609 680 551 579 l 667 646 q 473 491 589 491 q 355 523 422 491 l 275 561 q 181 589 218 589 q 57 483 113 589 m 57 255 l 0 292 q 189 449 73 449 q 345 398 241 449 q 482 351 441 351 q 609 452 551 351 l 667 417 q 473 263 590 263 q 355 295 422 263 l 275 333 q 182 361 218 361 q 57 255 112 361 z "},"<":{"ha":602,"x_min":0,"x_max":602,"o":"m 602 789 l 602 694 l 102 467 l 602 240 l 602 146 l 0 426 l 0 509 l 602 789 z "},">":{"ha":602,"x_min":0,"x_max":602,"o":"m 0 146 l 0 241 l 500 467 l 0 694 l 0 788 l 602 508 l 602 425 l 0 146 z "},"≤":{"ha":602,"x_min":0,"x_max":602,"o":"m 602 840 l 602 749 l 102 528 l 602 308 l 602 217 l 0 486 l 0 569 l 602 840 m 602 176 l 602 87 l 0 87 l 0 176 l 602 176 z "},"≥":{"ha":602,"x_min":0,"x_max":602,"o":"m 0 217 l 0 308 l 500 529 l 0 749 l 0 840 l 602 568 l 602 486 l 0 217 m 0 87 l 0 176 l 602 176 l 602 87 l 0 87 z "},"¬":{"ha":602,"x_min":0,"x_max":602,"o":"m 507 0 l 507 282 l 0 282 l 0 370 l 602 370 l 602 0 l 507 0 z "},"∞":{"ha":875,"x_min":0,"x_max":875,"o":"m 439 409 q 210 261 336 261 q 0 473 0 261 q 59 626 0 566 q 211 685 118 685 q 435 537 336 685 q 666 685 536 685 q 875 472 875 685 q 667 260 875 260 q 439 409 538 260 m 485 473 q 659 339 570 339 q 785 475 785 339 q 658 606 785 606 q 485 473 572 606 m 389 472 q 216 606 306 606 q 90 471 90 606 q 217 340 90 340 q 389 472 303 340 z "},"∏":{"ha":866,"x_min":0,"x_max":866,"o":"m 0 1042 l 866 1042 l 866 954 l 755 954 l 755 -259 l 866 -259 l 866 -347 l 547 -347 l 547 -259 l 661 -259 l 661 954 l 205 954 l 205 -259 l 319 -259 l 319 -347 l 0 -347 l 0 -259 l 110 -259 l 110 954 l 0 954 l 0 1042 z "},"∑":{"ha":802,"x_min":0,"x_max":802,"o":"m 789 1042 l 789 727 l 702 727 l 694 954 l 106 954 l 457 376 l 106 -259 l 707 -259 l 711 -33 l 802 -33 l 802 -347 l 0 -347 l 0 -248 l 346 376 l 0 945 l 0 1042 l 789 1042 z "},"∂":{"ha":607,"x_min":0,"x_max":607,"o":"m 77 846 l 90 931 q 471 741 336 897 q 607 338 607 585 q 524 82 607 180 q 304 -16 440 -16 q 90 77 180 -16 q 0 298 0 169 q 84 514 0 424 q 286 604 168 604 q 497 498 414 604 q 488 521 491 513 q 77 846 375 804 m 310 530 q 161 461 222 530 q 100 292 100 392 q 160 127 100 196 q 304 58 220 58 q 449 129 391 58 q 507 304 507 199 q 451 466 507 402 q 310 530 395 530 z "},"^":{"ha":620,"x_min":0,"x_max":620,"o":"m 103 510 l 0 510 l 248 928 l 372 928 l 620 510 l 516 510 l 309 853 l 103 510 z "},"|":{"ha":95,"x_min":0,"x_max":95,"o":"m 0 926 l 95 926 l 95 -231 l 0 -231 l 0 926 z "},"_":{"ha":694,"x_min":0,"x_max":694,"o":"m 0 -92 l 694 -92 l 694 -180 l 0 -180 l 0 -92 z "},"π":{"ha":722,"x_min":0,"x_max":722,"o":"m 103 0 l 103 577 l 0 577 l 0 665 l 722 665 l 722 577 l 620 577 l 620 0 l 525 0 l 525 577 l 198 577 l 198 0 l 103 0 z "},"~":{"ha":667,"x_min":0,"x_max":667,"o":"m 57 811 l 0 848 q 189 1005 78 1005 q 345 955 241 1005 q 482 908 441 908 q 609 1008 551 908 l 667 973 q 473 820 590 820 q 355 852 422 820 l 275 889 q 181 917 218 917 q 57 811 113 917 z "},"µ":{"ha":559,"x_min":0,"x_max":559,"o":"m 0 -232 l 0 667 l 95 667 l 95 288 q 277 56 95 56 q 465 300 465 56 l 465 667 l 559 667 l 559 0 l 465 0 l 465 122 q 275 -18 402 -18 q 95 85 160 -18 l 95 -232 l 0 -232 z "},"Ω":{"ha":847,"x_min":0,"x_max":847,"o":"m 0 0 l 0 88 l 254 88 q 0 505 0 235 q 123 820 0 692 q 424 948 245 948 q 725 820 602 948 q 847 505 847 692 q 593 88 847 235 l 847 88 l 847 0 l 484 0 l 484 80 q 747 494 747 231 q 653 753 747 646 q 424 860 559 860 q 193 754 287 860 q 100 493 100 648 q 363 80 100 229 l 363 0 l 0 0 z "},"Ä":{"ha":845,"x_min":7,"x_max":838,"o":"m 657 196 l 189 196 l 117 0 l 7 0 l 346 926 l 492 926 l 838 0 l 729 0 l 657 196 m 627 275 l 421 840 l 218 275 l 627 275 m 349 1126 l 349 1038 l 245 1038 l 245 1126 l 349 1126 m 600 1126 l 600 1038 l 496 1038 l 496 1126 l 600 1126 z "},"Á":{"ha":845,"x_min":7,"x_max":838,"o":"m 657 196 l 189 196 l 117 0 l 7 0 l 346 926 l 492 926 l 838 0 l 729 0 l 657 196 m 627 275 l 421 840 l 218 275 l 627 275 m 558 1181 l 600 1105 l 391 1001 l 357 1055 l 558 1181 z "},"À":{"ha":845,"x_min":7,"x_max":838,"o":"m 657 196 l 189 196 l 117 0 l 7 0 l 346 926 l 492 926 l 838 0 l 729 0 l 657 196 m 627 275 l 421 840 l 218 275 l 627 275 m 286 1181 l 488 1055 l 454 1001 l 245 1105 l 286 1181 z "},"Â":{"ha":845,"x_min":7,"x_max":838,"o":"m 657 196 l 189 196 l 117 0 l 7 0 l 346 926 l 492 926 l 838 0 l 729 0 l 657 196 m 627 275 l 421 840 l 218 275 l 627 275 m 425 1177 l 637 1053 l 608 1001 l 425 1085 l 233 1001 l 208 1053 l 425 1177 z "},"Ã":{"ha":845,"x_min":7,"x_max":838,"o":"m 657 196 l 189 196 l 117 0 l 7 0 l 346 926 l 492 926 l 838 0 l 729 0 l 657 196 m 627 275 l 421 840 l 218 275 l 627 275 m 588 1152 l 641 1117 q 513 1025 584 1025 q 420 1053 484 1025 q 336 1077 363 1077 q 278 1027 306 1077 l 222 1059 q 340 1151 273 1151 q 432 1124 368 1151 q 515 1099 494 1099 q 588 1152 553 1099 z "},"Å":{"ha":845,"x_min":7,"x_max":838,"o":"m 657 196 l 189 196 l 117 0 l 7 0 l 346 926 l 492 926 l 838 0 l 729 0 l 657 196 m 627 275 l 421 840 l 218 275 l 627 275 m 422 1204 q 529 1097 529 1204 q 422 991 529 991 q 316 1097 316 991 q 422 1204 316 1204 m 422 1155 q 362 1097 362 1155 q 422 1040 362 1040 q 483 1097 483 1040 q 422 1155 483 1155 z "},"Ë":{"ha":692,"x_min":51,"x_max":646,"o":"m 155 838 l 155 522 l 625 522 l 625 434 l 155 434 l 155 88 l 646 88 l 646 0 l 51 0 l 51 926 l 646 926 l 646 838 l 155 838 m 282 1126 l 282 1038 l 178 1038 l 178 1126 l 282 1126 m 533 1126 l 533 1038 l 429 1038 l 429 1126 l 533 1126 z "},"É":{"ha":692,"x_min":51,"x_max":646,"o":"m 155 838 l 155 522 l 625 522 l 625 434 l 155 434 l 155 88 l 646 88 l 646 0 l 51 0 l 51 926 l 646 926 l 646 838 l 155 838 m 473 1181 l 513 1105 l 304 1001 l 271 1055 l 473 1181 z "},"È":{"ha":692,"x_min":51,"x_max":646,"o":"m 155 838 l 155 522 l 625 522 l 625 434 l 155 434 l 155 88 l 646 88 l 646 0 l 51 0 l 51 926 l 646 926 l 646 838 l 155 838 m 247 1181 l 448 1055 l 414 1001 l 206 1105 l 247 1181 z "},"Ê":{"ha":692,"x_min":51,"x_max":646,"o":"m 155 838 l 155 522 l 625 522 l 625 434 l 155 434 l 155 88 l 646 88 l 646 0 l 51 0 l 51 926 l 646 926 l 646 838 l 155 838 m 357 1177 l 570 1053 l 541 1001 l 357 1085 l 165 1001 l 140 1053 l 357 1177 z "},"Ï":{"ha":282,"x_min":14,"x_max":268,"o":"m 193 926 l 193 0 l 88 0 l 88 926 l 193 926 m 119 1126 l 119 1038 l 14 1038 l 14 1126 l 119 1126 m 268 1126 l 268 1038 l 163 1038 l 163 1126 l 268 1126 z "},"Í":{"ha":282,"x_min":75,"x_max":318,"o":"m 193 926 l 193 0 l 88 0 l 88 926 l 193 926 m 277 1181 l 318 1105 l 109 1001 l 75 1055 l 277 1181 z "},"Ì":{"ha":282,"x_min":-36,"x_max":207,"o":"m 191 926 l 191 0 l 87 0 l 87 926 l 191 926 m 5 1181 l 207 1055 l 173 1001 l -36 1105 l 5 1181 z "},"Î":{"ha":282,"x_min":-56,"x_max":338,"o":"m 193 926 l 193 0 l 88 0 l 88 926 l 193 926 m 144 1177 l 338 1053 l 309 1001 l 144 1085 l -30 1001 l -56 1053 l 144 1177 z "},"Ñ":{"ha":967,"x_min":88,"x_max":879,"o":"m 879 926 l 879 0 l 707 0 l 319 630 l 256 734 l 225 785 l 194 837 l 191 837 l 192 802 l 193 767 l 193 698 l 193 0 l 88 0 l 88 926 l 259 926 l 597 374 l 686 229 l 730 157 l 773 84 l 776 84 l 775 119 l 774 154 l 774 223 l 774 926 l 879 926 m 650 1152 l 703 1117 q 574 1025 646 1025 q 481 1053 545 1025 q 397 1077 425 1077 q 340 1027 367 1077 l 283 1059 q 401 1151 334 1151 q 493 1124 429 1151 q 577 1099 555 1099 q 650 1152 614 1099 z "},"Ö":{"ha":852,"x_min":32,"x_max":821,"o":"m 427 935 q 755 859 689 935 q 821 475 821 782 q 758 68 821 145 q 427 -9 694 -9 q 96 67 160 -9 q 32 463 32 144 l 32 528 l 33 616 q 116 868 33 800 q 427 935 199 935 m 426 847 q 169 798 206 847 q 132 463 132 749 q 169 127 132 176 q 426 79 206 79 q 684 127 646 79 q 721 463 721 176 l 721 524 l 720 611 q 669 806 720 764 q 426 847 617 847 m 353 1126 l 353 1038 l 249 1038 l 249 1126 l 353 1126 m 604 1126 l 604 1038 l 500 1038 l 500 1126 l 604 1126 z "},"Ó":{"ha":852,"x_min":32,"x_max":821,"o":"m 427 935 q 755 859 689 935 q 821 475 821 782 q 758 68 821 145 q 427 -9 694 -9 q 96 67 160 -9 q 32 463 32 144 l 32 528 l 33 616 q 116 868 33 800 q 427 935 199 935 m 426 847 q 169 798 206 847 q 132 463 132 749 q 169 127 132 176 q 426 79 206 79 q 684 127 646 79 q 721 463 721 176 l 721 524 l 720 611 q 669 806 720 764 q 426 847 617 847 m 544 1181 l 585 1105 l 376 1001 l 342 1055 l 544 1181 z "},"Ò":{"ha":852,"x_min":32,"x_max":821,"o":"m 427 935 q 755 859 689 935 q 821 475 821 782 q 758 68 821 145 q 427 -9 694 -9 q 96 67 160 -9 q 32 463 32 144 l 32 528 l 33 616 q 116 868 33 800 q 427 935 199 935 m 426 847 q 169 798 206 847 q 132 463 132 749 q 169 127 132 176 q 426 79 206 79 q 684 127 646 79 q 721 463 721 176 l 721 524 l 720 611 q 669 806 720 764 q 426 847 617 847 m 318 1181 l 520 1055 l 486 1001 l 277 1105 l 318 1181 z "},"Ô":{"ha":852,"x_min":32,"x_max":821,"o":"m 427 935 q 755 859 689 935 q 821 475 821 782 q 758 68 821 145 q 427 -9 694 -9 q 96 67 160 -9 q 32 463 32 144 l 32 528 l 33 616 q 116 868 33 800 q 427 935 199 935 m 426 847 q 169 798 206 847 q 132 463 132 749 q 169 127 132 176 q 426 79 206 79 q 684 127 646 79 q 721 463 721 176 l 721 524 l 720 611 q 669 806 720 764 q 426 847 617 847 m 429 1177 l 642 1053 l 612 1001 l 429 1085 l 237 1001 l 212 1053 l 429 1177 z "},"Õ":{"ha":852,"x_min":32,"x_max":821,"o":"m 427 935 q 755 859 689 935 q 821 475 821 782 q 758 68 821 145 q 427 -9 694 -9 q 96 67 160 -9 q 32 463 32 144 l 32 528 l 33 616 q 116 868 33 800 q 427 935 199 935 m 426 847 q 169 798 206 847 q 132 463 132 749 q 169 127 132 176 q 426 79 206 79 q 684 127 646 79 q 721 463 721 176 l 721 524 l 720 611 q 669 806 720 764 q 426 847 617 847 m 597 1152 l 650 1117 q 523 1025 593 1025 q 429 1053 493 1025 q 345 1077 372 1077 q 288 1027 315 1077 l 231 1059 q 349 1151 282 1151 q 441 1124 377 1151 q 525 1099 503 1099 q 597 1152 563 1099 z "},"Ü":{"ha":909,"x_min":89,"x_max":822,"o":"m 718 926 l 822 926 l 822 277 q 751 46 822 101 q 454 -9 680 -9 q 165 44 241 -9 q 89 246 89 97 l 89 277 l 89 926 l 193 926 l 193 277 q 236 112 193 146 q 446 79 279 79 q 673 112 628 79 q 718 277 718 144 l 718 926 m 382 1126 l 382 1038 l 277 1038 l 277 1126 l 382 1126 m 633 1126 l 633 1038 l 528 1038 l 528 1126 l 633 1126 z "},"Ú":{"ha":909,"x_min":89,"x_max":822,"o":"m 718 926 l 822 926 l 822 277 q 751 46 822 101 q 454 -9 680 -9 q 165 44 241 -9 q 89 246 89 97 l 89 277 l 89 926 l 193 926 l 193 277 q 236 112 193 146 q 446 79 279 79 q 673 112 628 79 q 718 277 718 144 l 718 926 m 572 1181 l 613 1105 l 405 1001 l 371 1055 l 572 1181 z "},"Ù":{"ha":909,"x_min":89,"x_max":822,"o":"m 718 926 l 822 926 l 822 277 q 751 46 822 101 q 454 -9 680 -9 q 165 44 241 -9 q 89 246 89 97 l 89 277 l 89 926 l 193 926 l 193 277 q 236 112 193 146 q 446 79 279 79 q 673 112 628 79 q 718 277 718 144 l 718 926 m 347 1181 l 549 1055 l 515 1001 l 306 1105 l 347 1181 z "},"Û":{"ha":909,"x_min":89,"x_max":822,"o":"m 718 926 l 822 926 l 822 277 q 751 46 822 101 q 454 -9 680 -9 q 165 44 241 -9 q 89 246 89 97 l 89 277 l 89 926 l 193 926 l 193 277 q 236 112 193 146 q 446 79 279 79 q 673 112 628 79 q 718 277 718 144 l 718 926 m 458 1177 l 670 1053 l 641 1001 l 458 1085 l 266 1001 l 240 1053 l 458 1177 z "},"Ÿ":{"ha":781,"x_min":-7,"x_max":789,"o":"m 789 926 l 439 387 l 439 0 l 334 0 l 334 387 l -7 926 l 115 926 l 313 613 l 351 553 q 370 523 359 542 l 389 492 l 391 492 q 410 523 404 513 l 428 553 l 467 613 l 665 926 l 789 926 m 317 1126 l 317 1038 l 213 1038 l 213 1126 l 317 1126 m 568 1126 l 568 1038 l 464 1038 l 464 1126 l 568 1126 z "},"ä":{"ha":708,"x_min":60,"x_max":616,"o":"m 182 467 l 88 467 q 139 619 88 580 q 340 658 191 658 q 559 610 502 658 q 616 428 616 562 l 616 0 l 521 0 l 528 70 l 526 71 q 306 -9 472 -9 q 60 188 60 -9 q 115 350 60 305 q 314 395 170 395 q 519 328 485 395 l 521 328 l 521 407 q 490 551 521 518 q 357 584 460 584 q 182 486 182 584 q 182 467 182 481 m 335 321 q 193 298 226 321 q 160 199 160 275 q 193 95 160 120 q 325 69 225 69 q 526 191 526 69 q 487 294 526 268 q 335 321 448 321 m 272 852 l 272 764 l 168 764 l 168 852 l 272 852 m 523 852 l 523 764 l 418 764 l 418 852 l 523 852 z "},"á":{"ha":708,"x_min":60,"x_max":616,"o":"m 182 467 l 88 467 q 139 619 88 580 q 340 658 191 658 q 559 610 502 658 q 616 428 616 562 l 616 0 l 521 0 l 528 70 l 526 71 q 306 -9 472 -9 q 60 188 60 -9 q 115 350 60 305 q 314 395 170 395 q 519 328 485 395 l 521 328 l 521 407 q 490 551 521 518 q 357 584 460 584 q 182 486 182 584 q 182 467 182 481 m 335 321 q 193 298 226 321 q 160 199 160 275 q 193 95 160 120 q 325 69 225 69 q 526 191 526 69 q 487 294 526 268 q 335 321 448 321 m 459 916 l 508 850 l 308 727 l 275 777 l 459 916 z "},"à":{"ha":708,"x_min":60,"x_max":616,"o":"m 182 467 l 88 467 q 139 619 88 580 q 340 658 191 658 q 559 610 502 658 q 616 428 616 562 l 616 0 l 521 0 l 528 70 l 526 71 q 306 -9 472 -9 q 60 188 60 -9 q 115 350 60 305 q 314 395 170 395 q 519 328 485 395 l 521 328 l 521 407 q 490 551 521 518 q 357 584 460 584 q 182 486 182 584 q 182 467 182 481 m 335 321 q 193 298 226 321 q 160 199 160 275 q 193 95 160 120 q 325 69 225 69 q 526 191 526 69 q 487 294 526 268 q 335 321 448 321 m 250 916 l 434 777 l 401 727 l 201 850 l 250 916 z "},"â":{"ha":708,"x_min":60,"x_max":616,"o":"m 182 467 l 88 467 q 139 619 88 580 q 340 658 191 658 q 559 610 502 658 q 616 428 616 562 l 616 0 l 521 0 l 528 70 l 526 71 q 306 -9 472 -9 q 60 188 60 -9 q 115 350 60 305 q 314 395 170 395 q 519 328 485 395 l 521 328 l 521 407 q 490 551 521 518 q 357 584 460 584 q 182 486 182 584 q 182 467 182 481 m 335 321 q 193 298 226 321 q 160 199 160 275 q 193 95 160 120 q 325 69 225 69 q 526 191 526 69 q 487 294 526 268 q 335 321 448 321 m 345 918 l 523 776 l 485 728 l 345 831 l 205 728 l 167 776 l 345 918 z "},"ã":{"ha":708,"x_min":60,"x_max":616,"o":"m 488 865 l 542 831 q 434 746 494 746 q 349 770 403 746 q 275 793 296 793 q 221 749 246 793 l 167 783 q 277 867 216 867 q 361 844 305 867 q 436 820 420 820 q 488 865 463 820 m 182 467 l 88 467 q 139 619 88 580 q 340 658 191 658 q 559 610 502 658 q 616 428 616 562 l 616 0 l 521 0 l 528 70 l 526 71 q 306 -9 472 -9 q 60 188 60 -9 q 115 350 60 305 q 314 395 170 395 q 519 328 485 395 l 521 328 l 521 407 q 490 551 521 518 q 357 584 460 584 q 182 486 182 584 q 182 467 182 481 m 335 316 q 193 293 226 316 q 160 196 160 271 q 193 94 160 118 q 333 69 226 69 q 526 189 526 69 q 487 290 526 264 q 335 316 448 316 z "},"å":{"ha":708,"x_min":60,"x_max":616,"o":"m 182 467 l 88 467 q 139 619 88 580 q 340 658 191 658 q 559 610 502 658 q 616 428 616 562 l 616 0 l 521 0 l 528 70 l 526 71 q 306 -9 472 -9 q 60 188 60 -9 q 115 350 60 305 q 314 395 170 395 q 519 328 485 395 l 521 328 l 521 407 q 490 551 521 518 q 357 584 460 584 q 182 486 182 584 q 182 467 182 481 m 335 321 q 193 298 226 321 q 160 199 160 275 q 193 95 160 120 q 325 69 225 69 q 526 191 526 69 q 487 294 526 268 q 335 321 448 321 m 345 926 q 452 819 452 926 q 345 713 452 713 q 239 819 239 713 q 345 926 239 926 m 345 877 q 285 819 285 877 q 345 762 285 762 q 406 819 406 762 q 345 877 406 877 z "},"ë":{"ha":698,"x_min":64,"x_max":632,"o":"m 534 196 l 631 196 l 632 172 q 571 31 632 71 q 355 -9 509 -9 q 120 56 176 -9 q 64 331 64 121 q 121 591 64 525 q 341 658 177 658 q 576 600 520 658 q 631 357 631 543 l 631 307 l 165 307 q 198 111 165 153 q 351 69 231 69 q 500 89 466 69 q 534 176 534 109 l 534 196 m 534 380 l 534 411 q 499 548 534 516 q 350 579 465 579 q 200 542 235 579 q 166 380 166 505 l 534 380 m 285 852 l 285 764 l 180 764 l 180 852 l 285 852 m 536 852 l 536 764 l 431 764 l 431 852 l 536 852 z "},"é":{"ha":698,"x_min":64,"x_max":632,"o":"m 534 196 l 631 196 l 632 172 q 571 31 632 71 q 355 -9 509 -9 q 120 56 176 -9 q 64 331 64 121 q 121 591 64 525 q 341 658 177 658 q 576 600 520 658 q 631 357 631 543 l 631 307 l 165 307 q 198 111 165 153 q 351 69 231 69 q 500 89 466 69 q 534 176 534 109 l 534 196 m 534 380 l 534 411 q 499 548 534 516 q 350 579 465 579 q 200 542 235 579 q 166 380 166 505 l 534 380 m 463 916 l 511 850 l 311 727 l 279 777 l 463 916 z "},"è":{"ha":698,"x_min":64,"x_max":632,"o":"m 534 196 l 631 196 l 632 172 q 571 31 632 71 q 355 -9 509 -9 q 120 56 176 -9 q 64 331 64 121 q 121 591 64 525 q 341 658 177 658 q 576 600 520 658 q 631 357 631 543 l 631 307 l 165 307 q 198 111 165 153 q 351 69 231 69 q 500 89 466 69 q 534 176 534 109 l 534 196 m 534 380 l 534 411 q 499 548 534 516 q 350 579 465 579 q 200 542 235 579 q 166 380 166 505 l 534 380 m 254 916 l 437 777 l 404 727 l 205 850 l 254 916 z "},"ê":{"ha":698,"x_min":64,"x_max":632,"o":"m 534 196 l 631 196 l 632 172 q 571 31 632 71 q 355 -9 509 -9 q 120 56 176 -9 q 64 331 64 121 q 121 591 64 525 q 341 658 177 658 q 576 600 520 658 q 631 357 631 543 l 631 307 l 165 307 q 198 111 165 153 q 351 69 231 69 q 500 89 466 69 q 534 176 534 109 l 534 196 m 534 380 l 534 411 q 499 548 534 516 q 350 579 465 579 q 200 542 235 579 q 166 380 166 505 l 534 380 m 358 918 l 536 776 l 498 728 l 358 831 l 218 728 l 180 776 l 358 918 z "},"ï":{"ha":261,"x_min":-11,"x_max":273,"o":"m 178 648 l 178 0 l 83 0 l 83 648 l 178 648 m 94 852 l 94 764 l -11 764 l -11 852 l 94 852 m 273 852 l 273 764 l 168 764 l 168 852 l 273 852 z "},"í":{"ha":261,"x_min":60,"x_max":293,"o":"m 178 648 l 178 0 l 83 0 l 83 648 l 178 648 m 244 916 l 293 850 l 93 727 l 60 777 l 244 916 z "},"ì":{"ha":261,"x_min":-32,"x_max":201,"o":"m 178 648 l 178 0 l 83 0 l 83 648 l 178 648 m 17 916 l 201 777 l 168 727 l -32 850 l 17 916 z "},"î":{"ha":261,"x_min":-29,"x_max":290,"o":"m 178 648 l 178 0 l 83 0 l 83 648 l 178 648 m 130 918 l 290 776 l 252 728 l 130 831 l 9 728 l -29 776 l 130 918 z "},"ñ":{"ha":716,"x_min":83,"x_max":628,"o":"m 83 648 l 175 648 l 172 560 l 175 558 q 391 658 218 658 q 579 609 530 658 q 628 422 628 560 l 628 0 l 533 0 l 533 414 l 533 438 q 501 550 533 522 q 378 579 469 579 q 178 390 178 579 l 178 0 l 83 0 l 83 648 m 500 865 l 554 831 q 446 746 506 746 q 361 770 415 746 q 287 793 308 793 q 233 749 258 793 l 179 783 q 290 867 229 867 q 374 844 317 867 q 448 820 433 820 q 500 865 475 820 z "},"ö":{"ha":703,"x_min":65,"x_max":638,"o":"m 351 658 q 585 595 531 658 q 638 324 638 533 q 585 53 638 115 q 351 -9 531 -9 q 119 53 172 -9 q 65 324 65 115 q 119 595 65 533 q 351 658 172 658 m 351 579 q 195 538 225 579 q 165 324 165 497 q 195 110 165 151 q 351 69 225 69 q 508 110 478 69 q 538 324 538 151 q 508 538 538 497 q 351 579 478 579 m 279 852 l 279 764 l 174 764 l 174 852 l 279 852 m 530 852 l 530 764 l 425 764 l 425 852 l 530 852 z "},"ó":{"ha":703,"x_min":65,"x_max":638,"o":"m 351 658 q 585 595 531 658 q 638 324 638 533 q 585 53 638 115 q 351 -9 531 -9 q 119 53 172 -9 q 65 324 65 115 q 119 595 65 533 q 351 658 172 658 m 351 579 q 195 538 225 579 q 165 324 165 497 q 195 110 165 151 q 351 69 225 69 q 508 110 478 69 q 538 324 538 151 q 508 538 538 497 q 351 579 478 579 m 456 916 l 505 850 l 304 727 l 272 777 l 456 916 z "},"ò":{"ha":703,"x_min":65,"x_max":638,"o":"m 351 658 q 585 595 531 658 q 638 324 638 533 q 585 53 638 115 q 351 -9 531 -9 q 119 53 172 -9 q 65 324 65 115 q 119 595 65 533 q 351 658 172 658 m 351 579 q 195 538 225 579 q 165 324 165 497 q 195 110 165 151 q 351 69 225 69 q 508 110 478 69 q 538 324 538 151 q 508 538 538 497 q 351 579 478 579 m 256 916 l 440 777 l 407 727 l 208 850 l 256 916 z "},"ô":{"ha":703,"x_min":65,"x_max":638,"o":"m 351 658 q 585 595 531 658 q 638 324 638 533 q 585 53 638 115 q 351 -9 531 -9 q 119 53 172 -9 q 65 324 65 115 q 119 595 65 533 q 351 658 172 658 m 351 579 q 195 538 225 579 q 165 324 165 497 q 195 110 165 151 q 351 69 225 69 q 508 110 478 69 q 538 324 538 151 q 508 538 538 497 q 351 579 478 579 m 351 918 l 529 776 l 491 728 l 351 831 l 212 728 l 173 776 l 351 918 z "},"õ":{"ha":703,"x_min":65,"x_max":638,"o":"m 351 658 q 585 595 531 658 q 638 324 638 533 q 585 53 638 115 q 351 -9 531 -9 q 119 53 172 -9 q 65 324 65 115 q 119 595 65 533 q 351 658 172 658 m 351 579 q 195 538 225 579 q 165 324 165 497 q 195 110 165 151 q 351 69 225 69 q 508 110 478 69 q 538 324 538 151 q 508 538 538 497 q 351 579 478 579 m 498 865 l 553 831 q 445 746 505 746 q 359 770 414 746 q 286 793 307 793 q 232 749 257 793 l 178 783 q 288 867 227 867 q 372 844 316 867 q 447 820 431 820 q 498 865 473 820 z "},"ü":{"ha":705,"x_min":83,"x_max":612,"o":"m 612 648 l 612 0 l 517 0 l 524 85 l 522 87 q 311 -9 473 -9 q 83 217 83 -9 l 83 648 l 178 648 l 178 217 q 208 99 178 129 q 322 69 237 69 q 476 114 434 69 q 517 277 517 158 l 517 648 l 612 648 m 279 852 l 279 764 l 175 764 l 175 852 l 279 852 m 530 852 l 530 764 l 426 764 l 426 852 l 530 852 z "},"ú":{"ha":705,"x_min":83,"x_max":612,"o":"m 612 648 l 612 0 l 517 0 l 524 85 l 522 87 q 311 -9 473 -9 q 83 217 83 -9 l 83 648 l 178 648 l 178 217 q 208 99 178 129 q 322 69 237 69 q 476 114 434 69 q 517 277 517 158 l 517 648 l 612 648 m 457 916 l 506 850 l 306 727 l 273 777 l 457 916 z "},"ù":{"ha":705,"x_min":83,"x_max":612,"o":"m 612 648 l 612 0 l 517 0 l 524 85 l 522 87 q 311 -9 473 -9 q 83 217 83 -9 l 83 648 l 178 648 l 178 217 q 208 99 178 129 q 322 69 237 69 q 476 114 434 69 q 517 277 517 158 l 517 648 l 612 648 m 248 916 l 432 777 l 399 727 l 199 850 l 248 916 z "},"û":{"ha":705,"x_min":83,"x_max":612,"o":"m 612 648 l 612 0 l 517 0 l 524 85 l 522 87 q 311 -9 473 -9 q 83 217 83 -9 l 83 648 l 178 648 l 178 217 q 208 99 178 129 q 322 69 237 69 q 476 114 434 69 q 517 277 517 158 l 517 648 l 612 648 m 353 918 l 530 776 l 492 728 l 353 831 l 213 728 l 174 776 l 353 918 z "},"ÿ":{"ha":540,"x_min":-5,"x_max":544,"o":"m 544 648 l 360 -37 q 274 -237 321 -182 q 140 -291 227 -291 q 94 -286 122 -291 l 94 -208 q 127 -212 114 -212 q 241 -88 204 -216 l 260 -24 q 266 0 260 -21 l 230 0 l -5 648 l 96 648 l 196 359 l 246 216 l 271 143 l 296 71 l 298 71 l 316 143 l 333 216 l 370 359 l 443 648 l 544 648 m 197 852 l 197 764 l 92 764 l 92 852 l 197 852 m 448 852 l 448 764 l 343 764 l 343 852 l 448 852 z "},"Ð":{"ha":907,"x_min":0,"x_max":856,"o":"m 88 434 l 0 434 l 0 513 l 88 513 l 88 926 l 515 926 q 785 838 715 926 q 856 503 856 751 q 793 101 856 202 q 542 0 730 0 l 88 0 l 88 434 m 193 434 l 193 88 l 493 88 q 708 155 660 88 q 756 451 756 221 q 714 770 756 703 q 515 838 672 838 l 193 838 l 193 513 l 487 513 l 487 434 l 193 434 z "},"Þ":{"ha":819,"x_min":88,"x_max":783,"o":"m 88 0 l 88 926 l 193 926 l 193 796 l 477 796 l 512 796 q 726 736 669 796 q 783 509 783 675 q 723 292 783 349 q 500 234 664 234 l 460 233 l 193 233 l 193 0 l 88 0 m 193 321 l 440 321 q 640 354 596 321 q 683 500 683 386 q 653 671 683 635 q 513 707 624 707 l 473 708 l 193 708 l 193 321 z "},"ð":{"ha":703,"x_min":65,"x_max":638,"o":"m 360 778 l 228 705 l 197 761 l 323 831 l 258 926 l 353 926 l 391 869 l 513 936 l 544 880 l 429 816 l 572 608 q 638 324 638 511 q 585 53 638 115 q 351 -9 531 -9 q 119 53 172 -9 q 65 324 65 115 q 119 595 65 533 q 352 658 172 658 q 445 654 398 658 l 360 778 m 351 579 q 195 538 225 579 q 165 324 165 497 q 195 110 165 151 q 351 69 225 69 q 508 110 478 69 q 538 324 538 151 q 508 538 538 497 q 351 579 478 579 z "},"þ":{"ha":709,"x_min":83,"x_max":642,"o":"m 83 926 l 178 926 l 178 566 l 181 564 q 389 658 230 658 q 588 584 534 658 q 642 315 642 511 q 587 61 642 132 q 392 -9 532 -9 q 180 77 232 -9 l 178 77 l 178 -279 l 83 -279 l 83 926 m 363 579 q 214 530 249 579 q 180 319 180 481 q 217 119 180 169 q 367 69 254 69 q 508 117 474 69 q 543 316 543 165 q 509 530 543 481 q 363 579 476 579 z "},"¹":{"ha":554,"x_min":95,"x_max":357,"o":"m 357 926 l 357 370 l 288 370 l 288 863 l 143 714 l 95 757 l 261 926 l 357 926 z "},"²":{"ha":560,"x_min":54,"x_max":486,"o":"m 484 431 l 484 369 l 54 369 l 54 477 q 92 594 54 566 q 267 637 129 623 q 395 666 374 648 q 416 763 416 684 q 392 851 416 832 q 279 871 368 871 q 154 854 180 871 q 127 777 127 838 l 128 730 l 55 730 l 56 764 q 100 897 56 863 q 275 931 145 931 q 443 896 401 931 q 486 754 486 860 q 447 620 486 654 q 279 574 408 586 q 149 546 170 564 q 129 445 129 529 l 129 431 l 484 431 z "},"³":{"ha":560,"x_min":52,"x_max":496,"o":"m 220 623 l 220 686 l 248 685 q 391 698 366 685 q 416 771 416 711 q 394 856 416 841 q 270 871 372 871 q 153 856 174 871 q 133 772 133 841 l 133 749 l 62 749 l 62 775 q 102 901 62 871 q 269 931 142 931 q 443 903 400 931 q 485 788 485 875 q 406 655 485 672 q 496 528 496 640 q 453 397 496 430 q 280 365 410 365 q 96 395 140 365 q 52 521 52 425 l 52 557 l 125 557 l 125 521 q 210 427 125 427 l 304 425 l 368 430 q 427 531 427 439 q 306 623 427 623 l 250 623 l 220 623 z "},"×":{"ha":852,"x_min":132,"x_max":720,"o":"m 361 463 l 132 692 l 196 758 l 426 528 l 656 758 l 720 692 l 490 463 l 720 233 l 656 169 l 426 398 l 196 169 l 132 233 l 361 463 z "},"½":{"ha":1305,"x_min":95,"x_max":1231,"o":"m 357 926 l 357 370 l 288 370 l 288 863 l 143 714 l 95 757 l 261 926 l 357 926 m 1002 926 l 374 0 l 303 0 l 928 926 l 1002 926 m 1229 62 l 1229 0 l 800 0 l 800 109 q 837 225 800 197 q 1012 267 873 252 q 1141 296 1120 279 q 1162 393 1162 314 q 1137 481 1162 462 q 1024 500 1113 500 q 899 484 925 500 q 873 406 873 468 l 873 360 l 800 360 l 801 393 q 846 527 801 492 q 1020 561 890 561 q 1188 525 1146 561 q 1231 384 1231 490 q 1192 250 1231 284 q 1024 204 1152 216 q 894 177 914 194 q 874 76 874 159 l 874 62 l 1229 62 z "},"¼":{"ha":1305,"x_min":95,"x_max":1264,"o":"m 357 926 l 357 370 l 288 370 l 288 863 l 143 714 l 95 757 l 261 926 l 357 926 m 1002 926 l 374 0 l 303 0 l 928 926 l 1002 926 m 1177 555 l 1177 189 l 1264 189 l 1264 126 l 1177 126 l 1177 0 l 1107 0 l 1107 126 l 775 126 l 775 206 l 1074 555 l 1177 555 m 1107 189 l 1107 500 l 845 189 l 1107 189 z "},"¾":{"ha":1305,"x_min":52,"x_max":1263,"o":"m 220 623 l 220 686 l 248 685 q 391 698 366 685 q 416 771 416 711 q 394 856 416 841 q 270 871 372 871 q 153 856 174 871 q 133 772 133 841 l 133 749 l 62 749 l 62 775 q 102 901 62 871 q 269 931 142 931 q 443 903 400 931 q 485 788 485 875 q 406 655 485 671 q 496 528 496 640 q 453 397 496 430 q 280 365 410 365 q 96 395 140 365 q 52 521 52 425 l 52 557 l 125 557 l 125 521 q 210 427 125 427 l 304 425 l 368 430 q 427 531 427 439 q 306 623 427 623 l 250 623 l 220 623 m 1048 926 l 419 0 l 349 0 l 974 926 l 1048 926 m 1176 555 l 1176 189 l 1263 189 l 1263 126 l 1176 126 l 1176 0 l 1107 0 l 1107 126 l 774 126 l 774 206 l 1073 555 l 1176 555 m 1107 189 l 1107 500 l 844 189 l 1107 189 z "},"¦":{"ha":95,"x_min":0,"x_max":95,"o":"m 0 926 l 95 926 l 95 465 l 0 465 l 0 926 m 0 213 l 95 213 l 95 -231 l 0 -231 l 0 213 z "},"Š":{"ha":777,"x_min":41,"x_max":740,"o":"m 723 675 l 619 675 q 582 817 619 787 q 406 847 545 847 q 195 818 242 847 q 147 690 147 789 q 184 553 147 578 q 406 520 222 529 q 681 465 623 511 q 740 262 740 420 q 672 41 740 91 q 374 -9 605 -9 q 108 41 174 -9 q 42 245 42 92 l 41 286 l 145 286 l 145 263 q 183 109 145 139 q 378 79 221 79 q 599 109 557 79 q 640 270 640 139 q 612 383 640 355 q 494 416 584 411 l 386 422 l 283 427 q 47 671 47 444 q 116 882 47 829 q 389 935 184 935 q 660 886 597 935 q 723 675 723 837 m 391 1001 l 174 1124 l 199 1177 l 391 1093 l 575 1177 l 604 1124 l 391 1001 z "},"Ý":{"ha":781,"x_min":-7,"x_max":789,"o":"m 789 926 l 439 387 l 439 0 l 334 0 l 334 387 l -7 926 l 115 926 l 313 613 l 351 553 q 370 523 359 542 l 389 492 l 391 492 q 410 523 404 513 l 428 553 l 467 613 l 665 926 l 789 926 m 526 1181 l 568 1105 l 359 1001 l 325 1055 l 526 1181 z "},"š":{"ha":658,"x_min":54,"x_max":605,"o":"m 586 479 l 491 479 q 464 563 491 547 q 322 579 436 579 q 188 562 216 579 q 159 479 159 545 q 255 374 159 379 l 332 370 l 429 366 q 605 181 605 357 q 547 31 605 72 q 333 -9 488 -9 q 114 29 174 -9 q 54 171 54 68 l 54 206 l 153 206 l 153 176 q 186 91 153 112 q 314 69 218 69 q 468 92 431 69 q 505 185 505 114 q 412 288 505 288 q 128 324 196 288 q 60 476 60 361 q 114 622 60 585 q 328 658 168 658 q 586 503 586 658 l 586 479 m 329 728 l 151 869 l 189 918 l 329 814 l 469 918 l 507 869 l 329 728 z "},"ý":{"ha":540,"x_min":-5,"x_max":544,"o":"m 544 648 l 360 -37 q 274 -237 321 -182 q 140 -291 227 -291 q 94 -286 122 -291 l 94 -208 q 127 -212 114 -212 q 241 -88 204 -216 l 260 -24 q 266 0 260 -21 l 230 0 l -5 648 l 96 648 l 196 359 l 246 216 l 271 143 l 296 71 l 298 71 l 316 143 l 333 216 l 370 359 l 443 648 l 544 648 m 393 916 l 441 850 l 241 727 l 209 777 l 393 916 z "}}}
